2600 0 1 0           
12 Elysium, Inc 14 ACIS 29.0.1 NT 24 Sat Jun 21 15:13:50 2025 
1 9.9999999999999995e-007 1e-010 
T @77 R9ACCT68SJ9_2_EM2G78SWKHU7MCG4P3GAPMFTQBBBUUS6NHQAFMEGPW29NVQR66QCSKPMN2FA54Q 
body $1 -1 -1 $-1 $2 $-1 $-1 F #
string_attrib-name_attrib-gen-attrib $-1 -1 $-1 $-1 $0 2 1 0 1 1 1 1 1 1 1 1 1 1 1 0 1 1 1 @13 ELY_PART_NAME @12 axial plunge #
lump $-1 -1 -1 $-1 $-1 $3 $0 F #
shell $-1 -1 -1 $-1 $-1 $-1 $4 $-1 $2 F #
face $5 -1 -1 $-1 $6 $7 $3 $-1 $8 forward single F F #
rgb_color-st-attrib $-1 -1 $-1 $-1 $4 2 1 2 1 1 1 1 1 1 1 1 1 1 1 0 1 1 1 0.792156862745098 0.81960784313725499 0.93333333333333302 #
face $9 -1 -1 $-1 $10 $11 $3 $-1 $12 forward single F F #
loop $-1 -1 -1 $-1 $-1 $13 $4 F unknown #
plane-surface $14 -1 -1 $-1 -18.000000000000004 -36 5 0 0 1 1 0 0 forward_v I I I I #
rgb_color-st-attrib $-1 -1 $-1 $-1 $6 2 1 2 1 1 1 1 1 1 1 1 1 1 1 0 1 1 1 0.792156862745098 0.81960784313725499 0.93333333333333302 #
face $15 -1 -1 $-1 $16 $17 $3 $-1 $18 forward single F F #
loop $-1 -1 -1 $-1 $19 $20 $6 F unknown #
plane-surface $21 -1 -1 $-1 -18.000000000000004 -36 0 0 0 -1 -1 0 0 forward_v I I I I #
coedge $-1 -1 -1 $-1 $22 $22 $23 $24 forward $7 $-1 #
rgb_color-st-attrib $-1 -1 $-1 $-1 $8 2 1 2 1 1 1 1 1 1 1 1 1 1 1 0 1 1 1 0.792156862745098 0.81960784313725499 0.93333333333333302 #
rgb_color-st-attrib $-1 -1 $-1 $-1 $10 2 1 2 1 1 1 1 1 1 1 1 1 1 1 0 1 1 1 0.792156862745098 0.81960784313725499 0.93333333333333302 #
face $25 -1 -1 $-1 $26 $27 $3 $-1 $28 forward single F F #
loop $-1 -1 -1 $-1 $-1 $29 $10 F unknown #
plane-surface $30 -1 -1 $-1 -14.400000000000002 -28.799999999999997 -20 0 0 -1 -1 0 0 forward_v I I I I #
loop $-1 -1 -1 $-1 $-1 $31 $6 F unknown #
coedge $-1 -1 -1 $-1 $32 $32 $33 $34 reversed $11 $-1 #
rgb_color-st-attrib $-1 -1 $-1 $-1 $12 2 1 2 1 1 1 1 1 1 1 1 1 1 1 0 1 1 1 0.792156862745098 0.81960784313725499 0.93333333333333302 #
coedge $-1 -1 -1 $-1 $13 $13 $35 $36 forward $7 $-1 #
coedge $-1 -1 -1 $-1 $35 $37 $13 $24 reversed $27 $-1 #
edge $-1 -1 -1 $-1 $38 0 $39 3.1415926535897931 $13 $40 forward @7 unknown F #
rgb_color-st-attrib $-1 -1 $-1 $-1 $16 2 1 2 1 1 1 1 1 1 1 1 1 1 1 0 1 1 1 0.792156862745098 0.81960784313725499 0.93333333333333302 #
face $41 -1 -1 $-1 $-1 $42 $3 $-1 $43 forward single F F #
loop $-1 -1 -1 $-1 $-1 $44 $16 F unknown #
cone-surface $45 -1 -1 $-1 -1.3322676295501878e-015 -3.5527136788005009e-015 4.9999999999999991 0 0 -1 -14.975127249210423 0.86346040439351268 0 1 I I 0 1 14.999999999999998 forward I I I I #
coedge $-1 -1 -1 $-1 $46 $46 $47 $48 reversed $17 $-1 #
rgb_color-st-attrib $-1 -1 $-1 $-1 $18 2 1 2 1 1 1 1 1 1 1 1 1 1 1 0 1 1 1 0.792156862745098 0.81960784313725499 0.93333333333333302 #
coedge $-1 -1 -1 $-1 $49 $49 $50 $51 forward $19 $-1 #
coedge $-1 -1 -1 $-1 $20 $20 $52 $53 reversed $11 $-1 #
coedge $-1 -1 -1 $-1 $52 $44 $20 $34 forward $27 $-1 #
edge $-1 -1 -1 $-1 $54 0 $55 3.1415926535897931 $20 $56 forward @7 unknown F #
coedge $-1 -1 -1 $-1 $44 $23 $22 $36 reversed $27 $-1 #
edge $-1 -1 -1 $-1 $39 0 $38 3.1415926535897931 $22 $57 forward @7 unknown F #
coedge $-1 -1 -1 $-1 $23 $52 $44 $58 reversed $27 $-1 #
vertex $-1 -1 -1 $-1 $24 $59 #
vertex $-1 -1 -1 $-1 $24 $60 #
ellipse-curve $-1 -1 -1 $-1 -2.2438710192953229e-031 -1.184237892933504e-016 5 0 -0 1 15 1.184237892933504e-016 0 1 I I #
rgb_color-st-attrib $-1 -1 $-1 $-1 $26 2 1 2 1 1 1 1 1 1 1 1 1 1 1 0 1 1 1 0.792156862745098 0.81960784313725499 0.93333333333333302 #
loop $-1 -1 -1 $-1 $-1 $61 $26 F unknown #
cone-surface $62 -1 -1 $-1 -8.8817841970012523e-016 1.7763568394002505e-015 -19.999999999999996 0 0 1 -11.980101799368336 -0.69076832351480921 0 1 I I 0 1 11.999999999999995 forward I I I I #
coedge $-1 -1 -1 $-1 $33 $35 $37 $58 forward $27 $-1 #
rgb_color-st-attrib $-1 -1 $-1 $-1 $28 2 1 2 1 1 1 1 1 1 1 1 1 1 1 0 1 1 1 0.792156862745098 0.81960784313725499 0.93333333333333302 #
coedge $-1 -1 -1 $-1 $29 $29 $63 $64 reversed $17 $-1 #
coedge $-1 -1 -1 $-1 $63 $65 $29 $48 forward $42 $-1 #
edge $-1 -1 -1 $-1 $66 0 $67 3.1415926535897922 $29 $68 forward @7 unknown F #
coedge $-1 -1 -1 $-1 $31 $31 $69 $70 forward $19 $-1 #
coedge $-1 -1 -1 $-1 $69 $61 $31 $51 reversed $42 $-1 #
edge $-1 -1 -1 $-1 $71 0 $72 3.1415926535897931 $31 $73 forward @7 unknown F #
coedge $-1 -1 -1 $-1 $37 $33 $32 $53 forward $27 $-1 #
edge $-1 -1 -1 $-1 $55 0 $54 3.1415926535897931 $32 $74 forward @7 unknown F #
vertex $-1 -1 -1 $-1 $34 $75 #
vertex $-1 -1 -1 $-1 $34 $76 #
ellipse-curve $-1 -1 -1 $-1 0 6.0613359320779124e-017 0 0 0 1 -15 1.7763568394002505e-015 0 1 I I #
ellipse-curve $-1 -1 -1 $-1 0 6.0613359320779124e-017 5 0 0 1 -15 1.7763568394002505e-015 0 1 I I #
edge $-1 -1 -1 $-1 $39 0 $54 5 $44 $77 forward @7 unknown F #
point $-1 -1 -1 $-1 15 0 5 #
point $-1 -1 -1 $-1 -15 1.8369701987210296e-015 5 #
coedge $-1 -1 -1 $-1 $50 $63 $65 $78 forward $42 $-1 #
rgb_color-st-attrib $-1 -1 $-1 $-1 $43 2 1 2 1 1 1 1 1 1 1 1 1 1 1 0 1 1 1 0.792156862745098 0.81960784313725499 0.93333333333333302 #
coedge $-1 -1 -1 $-1 $61 $47 $46 $64 forward $42 $-1 #
edge $-1 -1 -1 $-1 $67 0 $66 3.1415926535897931 $46 $79 forward @7 unknown F #
coedge $-1 -1 -1 $-1 $47 $69 $61 $78 reversed $42 $-1 #
vertex $-1 -1 -1 $-1 $48 $80 #
vertex $-1 -1 -1 $-1 $48 $81 #
ellipse-curve $-1 -1 -1 $-1 0 3.2459329983770746e-015 -20 0 0 1 -12 -1.7763568394002505e-015 0 1 I I #
coedge $-1 -1 -1 $-1 $65 $50 $49 $70 reversed $42 $-1 #
edge $-1 -1 -1 $-1 $72 0 $71 3.1415926535897922 $49 $82 forward @7 unknown F #
vertex $-1 -1 -1 $-1 $51 $83 #
vertex $-1 -1 -1 $-1 $51 $84 #
ellipse-curve $-1 -1 -1 $-1 0 0 0 0 0 1 12 0 0 1 I I #
ellipse-curve $-1 -1 -1 $-1 -2.2438710192953229e-031 -1.184237892933504e-016 0 0 -0 1 15 1.184237892933504e-016 0 1 I I #
point $-1 -1 -1 $-1 -15 1.8369701987210296e-015 0 #
point $-1 -1 -1 $-1 15 0 0 #
straight-curve $-1 -1 -1 $-1 -15.000000000000004 7.8886090522101181e-031 5 0 0 -1 I I #
edge $-1 -1 -1 $-1 $66 0 $72 20 $61 $85 forward @7 unknown F #
ellipse-curve $-1 -1 -1 $-1 0 0 -20 0 0 1 12 0 0 1 I I #
point $-1 -1 -1 $-1 -12 1.4695761589768239e-015 -20 #
point $-1 -1 -1 $-1 12 0 -20 #
ellipse-curve $-1 -1 -1 $-1 0 3.2459329983770746e-015 0 0 0 1 -12 -1.7763568394002505e-015 0 1 I I #
point $-1 -1 -1 $-1 12 0 0 #
point $-1 -1 -1 $-1 -12 1.4695761589768239e-015 0 #
straight-curve $-1 -1 -1 $-1 -12 -3.0678068042342652e-016 -20 0 0 1 I I #
End-of-ACIS-data 