2600 0 1 0           
12 Elysium, Inc 14 ACIS 29.0.1 NT 24 Fri Jun 20 14:54:25 2025 
1 9.9999999999999995e-007 1e-010 
T @77 ZVQD4GUVF8F4HWJWNQTVTU3WX2VMQ474M89CQP953984FJPDBBSMN47CUCPCQ8ND3DMKREQAKAPUK 
body $1 -1 -1 $-1 $2 $-1 $-1 F #
string_attrib-name_attrib-gen-attrib $-1 -1 $-1 $-1 $0 2 1 0 1 1 1 1 1 1 1 1 1 1 1 0 1 1 1 @13 ELY_PART_NAME @9 upper die #
lump $-1 -1 -1 $-1 $-1 $3 $0 F #
shell $-1 -1 -1 $-1 $-1 $-1 $4 $-1 $2 F #
face $5 -1 -1 $-1 $6 $7 $3 $-1 $8 forward single F F #
rgb_color-st-attrib $-1 -1 $-1 $-1 $4 2 1 2 1 1 1 1 1 1 1 1 1 1 1 0 1 1 1 0.792156862745098 0.81960784313725499 0.93333333333333302 #
face $9 -1 -1 $-1 $10 $11 $3 $-1 $12 forward single F F #
loop $-1 -1 -1 $-1 $-1 $13 $4 F unknown #
plane-surface $14 -1 -1 $-1 12 1.331103633819955e-014 -38 1.8487550469721596e-016 -1 0 0 0 -1 forward_v I I I I #
rgb_color-st-attrib $-1 -1 $-1 $-1 $6 2 1 2 1 1 1 1 1 1 1 1 1 1 1 0 1 1 1 0.792156862745098 0.81960784313725499 0.93333333333333302 #
face $15 -1 -1 $-1 $16 $17 $3 $-1 $18 forward single F F #
loop $-1 -1 -1 $-1 $-1 $19 $6 F unknown #
plane-surface $20 -1 -1 $-1 -60 0 -38 1.8487550469721596e-016 -1 0 0 0 -1 forward_v I I I I #
coedge $-1 -1 -1 $-1 $21 $22 $23 $24 reversed $7 $-1 #
rgb_color-st-attrib $-1 -1 $-1 $-1 $8 2 1 2 1 1 1 1 1 1 1 1 1 1 1 0 1 1 1 0.792156862745098 0.81960784313725499 0.93333333333333302 #
rgb_color-st-attrib $-1 -1 $-1 $-1 $10 2 1 2 1 1 1 1 1 1 1 1 1 1 1 0 1 1 1 0.792156862745098 0.81960784313725499 0.93333333333333302 #
face $25 -1 -1 $-1 $26 $27 $3 $-1 $28 forward single F F #
loop $-1 -1 -1 $-1 $-1 $29 $10 F unknown #
plane-surface $30 -1 -1 $-1 -60 0 -100 -1 0 0 0 -0 1 forward_v I I I I #
coedge $-1 -1 -1 $-1 $31 $32 $33 $34 reversed $11 $-1 #
rgb_color-st-attrib $-1 -1 $-1 $-1 $12 2 1 2 1 1 1 1 1 1 1 1 1 1 1 0 1 1 1 0.792156862745098 0.81960784313725499 0.93333333333333302 #
coedge $-1 -1 -1 $-1 $35 $13 $36 $37 forward $7 $-1 #
coedge $-1 -1 -1 $-1 $13 $38 $39 $40 reversed $7 $-1 #
coedge $-1 -1 -1 $-1 $41 $42 $13 $24 forward $43 $-1 #
edge $-1 -1 -1 $-1 $44 0 $45 35 $13 $46 forward @7 unknown F #
rgb_color-st-attrib $-1 -1 $-1 $-1 $16 2 1 2 1 1 1 1 1 1 1 1 1 1 1 0 1 1 1 0.792156862745098 0.81960784313725499 0.93333333333333302 #
face $47 -1 -1 $-1 $48 $49 $3 $-1 $50 forward single F F #
loop $-1 -1 -1 $-1 $-1 $51 $16 F unknown #
plane-surface $52 -1 -1 $-1 60 50.000000000000021 -100 -1.7763568394002503e-016 1 0 0 -0 1 forward_v I I I I #
coedge $-1 -1 -1 $-1 $53 $54 $55 $56 reversed $17 $-1 #
rgb_color-st-attrib $-1 -1 $-1 $-1 $18 2 1 2 1 1 1 1 1 1 1 1 1 1 1 0 1 1 1 0.792156862745098 0.81960784313725499 0.93333333333333302 #
coedge $-1 -1 -1 $-1 $57 $19 $58 $59 forward $11 $-1 #
coedge $-1 -1 -1 $-1 $19 $60 $53 $61 reversed $11 $-1 #
coedge $-1 -1 -1 $-1 $55 $62 $19 $34 forward $63 $-1 #
edge $-1 -1 -1 $-1 $64 0 $65 45 $19 $66 forward @7 unknown F #
coedge $-1 -1 -1 $-1 $38 $21 $67 $68 reversed $7 $-1 #
coedge $-1 -1 -1 $-1 $69 $70 $21 $37 reversed $71 $72 #
edge $-1 -1 -1 $-1 $44 0 $73 1.5707963267949006 $21 $74 forward @7 unknown F #
coedge $-1 -1 -1 $-1 $22 $35 $75 $76 forward $7 $-1 #
coedge $-1 -1 -1 $-1 $77 $78 $22 $40 forward $79 $-1 #
edge $-1 -1 -1 $-1 $45 3.5527136788005009e-015 $80 48 $22 $81 forward @7 unknown F #
coedge $-1 -1 -1 $-1 $82 $23 $78 $83 forward $43 $-1 #
tcoedge-coedge $-1 -1 -1 $-1 $23 $84 $69 $85 forward $43 $86 1.5707963267949152 3.1415926535897976 F #
loop $-1 -1 -1 $-1 $-1 $84 $87 F unknown #
tvertex-vertex $-1 -1 -1 $-1 $24 $88 1.4009270004994124e-014 #
vertex $-1 -1 -1 $-1 $24 $89 #
straight-curve $-1 -1 -1 $-1 12 1.3311036338199561e-014 -35 0 0 1 I I #
rgb_color-st-attrib $-1 -1 $-1 $-1 $26 2 1 2 1 1 1 1 1 1 1 1 1 1 1 0 1 1 1 0.792156862745098 0.81960784313725499 0.93333333333333302 #
face $90 -1 -1 $-1 $91 $92 $3 $-1 $93 forward single F F #
loop $-1 -1 -1 $-1 $-1 $94 $26 F unknown #
plane-surface $95 -1 -1 $-1 60 2.2185060563665948e-014 -100 1 4.2632564145606024e-016 -0 -0 0 -1 forward_v I I I I #
coedge $-1 -1 -1 $-1 $96 $97 $98 $99 reversed $27 $-1 #
rgb_color-st-attrib $-1 -1 $-1 $-1 $28 2 1 2 1 1 1 1 1 1 1 1 1 1 1 0 1 1 1 0.792156862745098 0.81960784313725499 0.93333333333333302 #
coedge $-1 -1 -1 $-1 $100 $29 $32 $61 forward $17 $-1 #
coedge $-1 -1 -1 $-1 $29 $101 $102 $103 forward $17 $-1 #
coedge $-1 -1 -1 $-1 $104 $33 $29 $56 forward $63 $-1 #
edge $-1 -1 -1 $-1 $65 1.4867640091126159e-016 $105 3.1415926535897949 $29 $106 forward @7 unknown F #
coedge $-1 -1 -1 $-1 $60 $31 $82 $107 reversed $11 $-1 #
coedge $-1 -1 -1 $-1 $108 $109 $31 $59 reversed $110 $111 #
edge $-1 -1 -1 $-1 $64 0 $112 1.5707963267948863 $31 $113 forward @7 unknown F #
coedge $-1 -1 -1 $-1 $32 $57 $114 $115 reversed $11 $-1 #
edge $-1 -1 -1 $-1 $65 0 $116 38 $32 $117 forward @7 unknown F #
tcoedge-coedge $-1 -1 -1 $-1 $33 $118 $108 $119 forward $63 $120 1.5707963267948979 3.1415926535897922 F #
loop $-1 -1 -1 $-1 $-1 $67 $121 F unknown #
tvertex-vertex $-1 -1 -1 $-1 $34 $122 4.1351098279418048e-014 #
vertex $-1 -1 -1 $-1 $34 $123 #
straight-curve $-1 -1 -1 $-1 -15 2.2185060563665948e-014 -38 -1 0 0 I I #
coedge $-1 -1 -1 $-1 $118 $124 $35 $68 forward $63 $-1 #
edge $-1 -1 -1 $-1 $125 0 $73 45 $35 $126 forward @7 unknown F #
tcoedge-coedge $-1 -1 -1 $-1 $70 $36 $42 $85 reversed $71 $127 -3.1415926535897976 -1.5707963267949152 F #
tcoedge-coedge $-1 -1 -1 $-1 $36 $69 $118 $128 reversed $71 $129 -1.5707963267948806 1.9776962184364316e-015 F #
loop $-1 -1 -1 $-1 $-1 $69 $130 F unknown #
pcurve $-1 -1 -1 $-1 0 forward { exppc 0 nubs 1 open 2 
	-1.5707963267949006 1 0 1 
	0 1 
	0 0 
	0.00050000000000000001 
	-1 
	spline forward { exactsur 1 full nurbs 3 2 both open open high none 8 2 
	0 3 0.12500000000000014 2 0.25000000000000028 2 0.37499999999999989 2 0.5 2 
	0.62500000000000011 2 0.74999999999999978 2 1 3 
	0 2 1 2 
	11.999999999999993 3.5496096901865472e-015 -35.000000000000007 1 
	11.999999999999993 0.78540707238180862 -35.000000000003418 1 
	11.922646945337457 1.5707769068275117 -35.096691318329995 1 
	11.616199784340063 3.1113908215595636 -35.47975026957311 1 
	11.387113254883518 3.8665879008148005 -35.766108431392894 1 
	10.785995525387364 5.3178144759473396 -36.517505593268517 1 
	10.413979188035718 6.0138080901812572 -36.98252601495674 1 
	9.5412915072253597 7.3198775022892173 -38.073385615966934 1 
	9.040641741234122 7.9299210072430322 -38.69919782346048 1 
	7.9299210072430597 9.0406417412340971 -40.087598740943051 1 
	7.3198775023721279 9.5412915071699764 -40.850153122031379 1 
	6.0138080900983377 10.413979188091137 -42.482739887380554 1 
	5.3178144761258457 10.785995525313449 -43.352731904843303 1 
	3.1409746128915765 11.687672119779478 -46.073781733884331 1 
	1.571079536660791 12.000000000000028 -48.036150579177196 1 
	-2.3154180742478906e-014 12.000000000000025 -50.000000000000028 1 
	11.999999999999993 4.4370121127331848e-015 -38.000000000000014 0.70710678118654757 
	11.99999999999574 0.58837027183567214 -38.000000000000014 0.70707172837491605 
	11.964594376331334 1.1721115578916081 -38.035405623670435 0.71174600253239428 
	11.792094973792958 2.4104105356141936 -38.207905026205331 0.72912889401092218 
	11.65754443275938 3.0522188049525512 -38.342455567234104 0.74183341788993495 
	11.232244556675415 4.3955743834609011 -38.767755443330849 0.77239682180726887 
	10.948808382907684 5.085676600334776 -39.051191617093323 0.79021800865634884 
	10.200408029473639 6.4553755579173249 -39.799591970525434 0.82759426958699278 
	9.7443640923801134 7.1315742101924666 -40.255635907620963 0.84713166044132338 
	8.6639824886315768 8.3971640880265781 -41.336017511367416 0.88491914712755293 
	8.0451123072059456 8.9910344958743877 -41.954887692791807 0.90316509941886658 
	6.6756016300933414 10.0351469071061 -43.324398369908835 0.93604218426752939 
	5.9245910886377677 10.493609741803239 -44.075408911356952 0.95067403540051731 
	3.5721739077850723 11.588164896783752 -46.427826092225111 0.98672918884243466 
	1.7672349047357436 12.000000000012067 -48.232765095257491 1.0001585810794011 
	-2.3154180742478906e-014 12.000000000000025 -50.000000000000028 1 
	14.999999999999993 5.3244145352798216e-015 -38.000000000000014 1 
	14.999999999998289 0.78540707238168506 -38.000000000000014 1 
	14.903308681670881 1.5707769068276793 -38.077353054662581 1 
	14.52024973042602 3.1113908215593997 -38.38380021565991 1 
	14.233891568605289 3.8665879008135784 -38.612886745115979 1 
	13.482494406733315 5.3178144759485635 -39.214004474613148 1 
	13.017473985044242 6.0138080901813717 -39.586020811964367 1 
	11.926614384032101 7.3198775022891054 -40.458708492774576 1 
	11.30080217654265 7.9299210072425117 -40.959358258765363 1 
	9.9124012590538211 9.0406417412346212 -42.070078992757466 1 
	9.1498468779653077 9.5412915071682729 -42.680122497625327 1 
	7.5172601126227709 10.413979188092842 -43.986191909904214 1 
	6.6472680951578607 10.785995525313037 -44.682185523873166 1 
	3.9262182661133576 11.687672119780299 -46.859025387110407 1 
	1.9638494208364705 12.00000000000003 -48.42892046335264 1 
	-2.3154180742478906e-014 12.000000000000025 -50.000000000000028 1 
	0 
	0 
	6 0.12500000000000014 0.25000000000000028 0.37499999999999989 0.5 0.62500000000000011 0.74999999999999978 
	0 
	0 
	0 
	0 
	F 1 F 0 F 1 F 0 } I I I I 
	} 0 0 #
tvertex-vertex $-1 -1 -1 $-1 $37 $131 2.2986953486997311e-014 #
ellipse-curve $-1 -1 -1 $-1 14.999999999999995 4.4370121127331848e-015 -35.000000000000007 1.8487550469721631e-016 -1 3.0989383083040931e-031 -2.9999999999999947 -5.5462651409164791e-016 7.1054273576010019e-015 1 I I #
coedge $-1 -1 -1 $-1 $94 $132 $38 $76 reversed $49 $-1 #
edge $-1 -1 -1 $-1 $125 0 $80 38 $38 $133 forward @7 unknown F #
coedge $-1 -1 -1 $-1 $98 $39 $132 $134 forward $79 $-1 #
coedge $-1 -1 -1 $-1 $39 $114 $41 $83 reversed $79 $-1 #
loop $-1 -1 -1 $-1 $-1 $114 $135 F unknown #
vertex $-1 -1 -1 $-1 $76 $136 #
straight-curve $-1 -1 -1 $-1 11.999999999999996 1.3311036338199548e-014 0 1 1.8487550469721598e-016 0 I I #
coedge $-1 -1 -1 $-1 $84 $41 $57 $107 forward $43 $-1 #
edge $-1 -1 -1 $-1 $45 8.7651211691223529e-032 $137 3.1415926535897922 $78 $138 forward @7 unknown F #
tcoedge-coedge $-1 -1 -1 $-1 $42 $82 $109 $139 forward $43 $140 -2.0957923821996592e-016 1.5707963267948917 F #
tedge-edge $-1 -1 -1 $-1 $141 1.5707963267949152 $44 3.1415926535897976 $42 $142 forward @7 unknown F 0.00072910706550683422 #
pcurve $-1 -1 -1 $-1 0 forward { exppc 2 nubs 5 open 11 
	1.5707963267949152 5 1.7278759594744035 1 1.8849555921538916 1 2.0420352248333797 1 2.1991148575128681 1 
	2.3561944901923564 2 2.5132741228718447 2 2.670353755551333 1 2.8274333882308209 2 2.9845130209103097 1 
	3.1415926535897976 5 
	0.025000000000000362 1.5132004614790833 
	0.064269908169872894 1.4817845349431853 
	0.14280972450961787 1.4189526818713893 
	0.26013497489391213 1.3247049022636941 
	0.41366181977037636 1.1990411961201084 
	0.5960002070822622 1.0419615634406019 
	0.73062302894688391 0.9162978572970446 
	0.8543236598783438 0.79063415115339464 
	0.93779905608239522 0.69638637154575478 
	1.0143891089352559 0.60213859193803487 
	1.0837783287019029 0.5078908123303677 
	1.1415119006777448 0.41364303272264069 
	1.1909672642928717 0.31939525311500805 
	1.2396073238134213 0.19373154697132536 
	1.2626629984586024 0.099483767363716738 
	1.2719157156091112 0.036651914291818327 
	1.2750000000000001 -0.026179938779915091 
	1.2750000000000001 -0.057595865315813038 
	1.5687858635382976e-005 
	1.3070820487405364e-006 
	cone 8.8817841970012523e-016 5.7673397493996544e-015 -50.300000000000004 -0 -0 1 11.980101799368336 0.69076832351481465 0 1 I I 0 -1 11.999999999999996 forward I I I I 
	} 0 0 #
face $143 -1 -1 $-1 $121 $43 $3 $-1 $144 forward single F F #
point $-1 -1 -1 $-1 12 1.3311036338199561e-014 -35 #
point $-1 -1 -1 $-1 12 1.3311036338199561e-014 0 #
rgb_color-st-attrib $-1 -1 $-1 $-1 $48 2 1 2 1 1 1 1 1 1 1 1 1 1 1 0 1 1 1 0.792156862745098 0.81960784313725499 0.93333333333333302 #
face $145 -1 -1 $-1 $135 $146 $3 $-1 $147 forward single F F #
loop $-1 -1 -1 $-1 $-1 $148 $48 F unknown #
plane-surface $149 -1 -1 $-1 -60 0 -100 1.8487550469721596e-016 -1 0 0 0 -1 forward_v I I I I #
coedge $-1 -1 -1 $-1 $150 $75 $124 $151 forward $49 $-1 #
rgb_color-st-attrib $-1 -1 $-1 $-1 $50 2 1 2 1 1 1 1 1 1 1 1 1 1 1 0 1 1 1 0.792156862745098 0.81960784313725499 0.93333333333333302 #
coedge $-1 -1 -1 $-1 $152 $51 $153 $154 reversed $27 $-1 #
coedge $-1 -1 -1 $-1 $51 $152 $155 $156 forward $27 $-1 #
coedge $-1 -1 -1 $-1 $157 $77 $51 $99 forward $79 $-1 #
edge $-1 -1 -1 $-1 $158 3.7865323450608572e-030 $159 120 $51 $160 forward @7 unknown F #
coedge $-1 -1 -1 $-1 $155 $53 $157 $161 reversed $17 $-1 #
coedge $-1 -1 -1 $-1 $54 $155 $162 $163 forward $17 $-1 #
coedge $-1 -1 -1 $-1 $164 $148 $54 $103 reversed $92 $-1 #
edge $-1 -1 -1 $-1 $165 0 $105 38 $54 $166 forward @7 unknown F #
coedge $-1 -1 -1 $-1 $124 $55 $148 $167 forward $63 $-1 #
vertex $-1 -1 -1 $-1 $56 $168 #
ellipse-curve $-1 -1 -1 $-1 -60 7.6897863325328657e-015 -50.000000000000007 -1 -5.9211894646675012e-016 -4.6747312901985865e-031 0 -9.4739031434680004e-015 12 1 I I #
edge $-1 -1 -1 $-1 $137 0 $112 35 $57 $169 forward @7 unknown F #
tcoedge-coedge $-1 -1 -1 $-1 $109 $58 $62 $119 reversed $110 $170 -3.1415926535897922 -1.5707963267948979 F #
tcoedge-coedge $-1 -1 -1 $-1 $58 $108 $84 $139 reversed $110 $171 -1.5707963267948917 2.0957923821996592e-016 F #
loop $-1 -1 -1 $-1 $-1 $58 $172 F unknown #
pcurve $-1 -1 -1 $-1 0 forward { exppc 3 nubs 1 open 2 
	-1.5707963267948863 1 0 1 
	1 0 
	1 1 
	0.00050000000000000001 
	-1 
	spline forward { exactsur 4 full nurbs 3 2 both open open low none 8 2 
	0 3 0.25000000000000028 2 0.37499999999999989 2 0.5 2 0.62500000000000011 2 
	0.74999999999999978 2 0.87499999999999989 2 1 3 
	0 2 1 2 
	2.4799097682733891e-015 12.000000000000025 -50 1 
	-1.5710795366560524 12.000000000000025 -48.03615057917348 1 
	-3.1409746128915419 11.687672119779487 -46.073781733884374 1 
	-5.3178144761258137 10.785995525313464 -43.352731904843345 1 
	-6.013808090097049 10.413979188091997 -42.482739887380568 1 
	-7.3198775023733953 9.5412915071691309 -40.850153122031394 1 
	-7.9299210072430082 9.0406417412341398 -40.087598740947286 1 
	-9.0406417412340758 7.9299210072430828 -38.699197823456373 1 
	-9.5412915072257274 7.3198775022886657 -38.073385615966941 1 
	-10.413979188035333 6.0138080901818336 -36.982526014956747 1 
	-10.785995525387351 5.3178144759473716 -36.517505593268531 1 
	-11.387113254883509 3.8665879008148347 -35.766108431392908 1 
	-11.616199784340099 3.111390821559378 -35.479750269573117 1 
	-11.922646945337412 1.5707769068277444 -35.096691318330002 1 
	-11.999999999999995 0.78540707238170215 -35.000000000003418 1 
	-11.999999999999993 -1.7766672382616484e-014 -35.000000000000007 1 
	2.4799097682733891e-015 12.000000000000025 -50 1 
	-1.7672349047307121 12.000000000014477 -48.232765095262515 1.0001585810795128 
	-3.5721739077791494 11.588164896783878 -46.427826092207283 0.98672918884228678 
	-5.9245910886406046 10.493609741803287 -44.075408911366438 0.95067403540059192 
	-6.6756016300951142 10.035146907105991 -43.324398369913048 0.93604218426774211 
	-8.0451123072044073 8.9910344958742723 -41.954887692787139 0.90316509941865397 
	-8.6639824886296104 8.3971640880275125 -41.336017511367331 0.88491914712775499 
	-9.7443640923823267 7.1315742101913013 -40.255635907620871 0.84713166044112487 
	-10.200408029473712 6.4553755579181402 -39.799591970521526 0.82759426958718019 
	-10.948808382907762 5.0856766003336276 -39.051191617097217 0.79021800865616221 
	-11.232244556675409 4.3955743834613781 -38.767755443323701 0.77239682180726965 
	-11.657544432759376 3.0522188049521164 -38.342455567241551 0.74183341788993573 
	-11.792094973792963 2.4104105356141656 -38.207905026205324 0.72912889401097802 
	-11.964594376331339 1.1721115578915779 -38.035405623670428 0.71174600253233888 
	-11.99999999999574 0.58837027183567536 -38.000000000000014 0.70707172837495758 
	-11.999999999999993 -1.1550199441869085e-014 -38.000000000000014 0.70710678118654757 
	2.4799097682733891e-015 12.000000000000025 -50 1 
	-1.9638494208170754 12.000000000000027 -48.428920463329611 1 
	-3.9262182661144771 11.687672119780308 -46.859025387110442 1 
	-6.6472680951572389 10.785995525313055 -44.682185523873201 1 
	-7.5172601126216492 10.41397918809319 -43.98619190990474 1 
	-9.1498468779664002 9.5412915071679389 -42.680122497624822 1 
	-9.9124012590537607 9.0406417412341398 -42.070078992756997 1 
	-11.300802176542589 7.9299210072430828 -40.959358258765924 1 
	-11.926614384033064 7.3198775022873175 -40.458708492773376 1 
	-13.017473985043257 6.0138080901831845 -39.586020811965568 1 
	-13.4824944067333 5.3178144759473058 -39.214004474612622 1 
	-14.233891568605275 3.8665879008149018 -38.612886745116526 1 
	-14.520249730426016 3.1113908215594228 -38.383800215659917 1 
	-14.903308681670875 1.5707769068277031 -38.077353054662588 1 
	-14.999999999998289 0.78540707238173624 -38.000000000000014 1 
	-14.999999999999993 -1.5991867537523208e-014 -38.000000000000014 1 
	0 
	0 
	6 0.25000000000000028 0.37499999999999989 0.5 0.62500000000000011 0.74999999999999978 0.87499999999999989 
	0 
	0 
	0 
	0 
	F 1 F 0 F 1 F 0 } I I I I 
	} 0 0 #
tvertex-vertex $-1 -1 -1 $-1 $59 $173 2.8472810041023471e-014 #
ellipse-curve $-1 -1 -1 $-1 -15.000000000000016 4.4370121127331817e-015 -34.999999999999986 1.8487550469721584e-016 -1 -6.6599938675264549e-032 1.5987211554602254e-014 3.1554436208840472e-030 -3.0000000000000213 1 I I #
coedge $-1 -1 -1 $-1 $78 $157 $60 $115 forward $79 $-1 #
edge $-1 -1 -1 $-1 $116 0 $137 48 $60 $174 forward @7 unknown F #
vertex $-1 -1 -1 $-1 $115 $175 #
straight-curve $-1 -1 -1 $-1 -60 0 -38 0 0 1 I I #
tcoedge-coedge $-1 -1 -1 $-1 $62 $67 $70 $128 forward $63 $176 -1.9776962184364316e-015 1.5707963267948806 F #
tedge-edge $-1 -1 -1 $-1 $141 1.5707963267948979 $64 3.1415926535897922 $62 $177 forward @7 unknown F 0.00072910706522695892 #
pcurve $-1 -1 -1 $-1 0 forward { exppc 5 nubs 5 open 11 
	1.5707963267948979 5 1.7278759594743873 1 1.8849555921538768 1 2.0420352248333664 1 2.1991148575128556 1 
	2.3561944901923448 2 2.5132741228718345 2 2.6703537555513241 1 2.8274333882308134 2 2.9845130209103026 2 
	3.1415926535897922 5 
	5.0000000000000071 1.5132004614790846 
	5.0392699081698797 1.4817845349431866 
	5.117809724509625 1.4189526818713907 
	5.2351349748939136 1.3247049022636981 
	5.3886618197704017 1.1990411961201 
	5.5710002070822187 1.041961563440629 
	5.7056230289469791 0.91629785729699564 
	5.829323659878205 0.79063415115347824 
	5.9127990560824708 0.69638637154571448 
	5.9893891089352271 0.6021385919380563 
	6.0587783287019787 0.50789081233032685 
	6.1165119006776907 0.41364303272267844 
	6.1659672642930534 0.3193952531149028 
	6.2024473089332037 0.22514747350729986 
	6.2299777735769295 0.13089969389956102 
	6.2422893570338145 0.068067840827795184 
	6.2484578743123373 0.0052359877559843533 
	6.250000000000008 -0.02617993877991364 
	6.250000000000008 -0.057595865315811637 
	1.0988040375939075e-005 
	9.1543052689816794e-007 
	cone 60 2.0424223667335441e-014 -50 -1 -0 -0 0 0.690768323514795 11.980101799368324 1 I I 0 -1 11.999999999999984 forward I I I I 
	} 0 0 #
face $178 -1 -1 $-1 $130 $63 $3 $-1 $179 forward single F F #
point $-1 -1 -1 $-1 -15 2.2185060563665948e-014 -38 #
point $-1 -1 -1 $-1 -60 0 -38 #
coedge $-1 -1 -1 $-1 $67 $104 $94 $151 reversed $63 $-1 #
vertex $-1 -1 -1 $-1 $68 $180 #
straight-curve $-1 -1 -1 $-1 60 2.2185060563665948e-014 -38 -1 0 0 I I #
pcurve $-1 -1 -1 $-1 0 forward { exppc 6 nubs 1 open 2 
	-3.1415926535897976 1 -1.5707963267949152 1 
	0 0 
	1 0 
	0.00050000000000000001 
	-1 
	spline forward { ref 1 } I I I I 
	} 0 0 #
tedge-edge $-1 -1 -1 $-1 $73 -1.9776962184364316e-015 $141 1.5707963267948806 $118 $181 forward @7 unknown F 0.00072910706523795642 #
pcurve $-1 -1 -1 $-1 0 forward { exppc 7 nubs 1 open 2 
	-1.5707963267948806 1 1.9984014443252818e-015 1 
	1 1 
	0 1 
	0.00050000000000000001 
	-1 
	spline forward { ref 1 } I I I I 
	} 0 0 #
face $182 -1 -1 $-1 $172 $71 $3 $-1 $183 forward single F F #
point $-1 -1 -1 $-1 15 2.2185060563665948e-014 -38 #
coedge $-1 -1 -1 $-1 $75 $153 $77 $134 reversed $49 $-1 #
straight-curve $-1 -1 -1 $-1 60 2.2185060563665948e-014 -38 0 0 1 I I #
edge $-1 -1 -1 $-1 $80 0 $158 49.999999999999972 $132 $184 forward @7 unknown F #
face $185 -1 -1 $-1 $87 $79 $3 $-1 $186 forward single F F #
point $-1 -1 -1 $-1 60 2.2185060563665948e-014 0 #
vertex $-1 -1 -1 $-1 $107 $187 #
ellipse-curve $-1 -1 -1 $-1 1.051814540294683e-030 4.4292521411983037e-015 0 0 -0 1 12 8.8817841970012555e-015 0 1 I I #
tedge-edge $-1 -1 -1 $-1 $112 -2.0957923821996592e-016 $141 1.5707963267948917 $84 $188 forward @7 unknown F 0.00072910706550977436 #
pcurve $-1 -1 -1 $-1 0 forward { exppc 8 nubs 5 open 11 
	-2.0957923821996592e-016 5 0.15707963267948896 1 0.31415926535897815 1 0.4712388980384673 1 0.62831853071795651 1 
	0.78539816339744573 1 0.94247779607693483 1 1.099557428756424 2 1.2566370614359132 2 1.4137166941154025 1 
	1.5707963267948917 5 
	1.2750000000000001 3.0839967882739794 
	1.2750000000000001 3.0525808617380816 
	1.2719157486246597 2.9897490086662861 
	1.2580366018293516 2.8955012290585875 
	1.2211780472998746 2.7698375229150214 
	1.145651087904388 2.6127578902354571 
	1.0425296854084229 2.4556782575561593 
	0.9143541001577018 2.2985986248761687 
	0.79429292738382795 2.1729349187336258 
	0.66331286434483216 2.0472712125882393 
	0.55812592045664378 1.9530234329822094 
	0.44917279583508396 1.8587756533736837 
	0.33689776637074087 1.7645278737668217 
	0.22102711094075372 1.6702800941580884 
	0.14280885518680325 1.6074482410875395 
	0.0642699081698722 1.5446163880149817 
	0.024999999999999769 1.5132004614790837 
	6.6884343197091723e-006 
	5.5713002199029595e-007 
	cone 8.8817841970012523e-016 5.7673397493996544e-015 -50.300000000000004 -0 -0 1 11.980101799368336 0.69076832351481465 0 1 I I 0 -1 11.999999999999996 forward I I I I 
	} 0 0 #
tvertex-vertex $-1 -1 -1 $-1 $139 $189 4.4298720099964178e-014 #
ellipse-curve $-1 -1 -1 $-1 -1.4122036873231991e-013 -1.4388490399142029e-013 -50.000000000000178 0.78086880944303028 3.0776317866662264e-016 -0.62469504755442462 -12.000000000000142 -2.0686887237586277e-013 -15.000000000000169 0.6246950475544244 I I #
rgb_color-st-attrib $-1 -1 $-1 $-1 $87 2 1 2 1 1 1 1 1 1 1 1 1 1 1 0 1 1 1 0.792156862745098 0.81960784313725499 0.93333333333333302 #
cone-surface $190 -1 -1 $-1 8.8817841970012523e-016 5.7673397493996544e-015 -50.300000000000004 -0 -0 1 11.980101799368336 0.69076832351481465 0 1 I I 0 -1 11.999999999999996 forward I I I I #
rgb_color-st-attrib $-1 -1 $-1 $-1 $91 2 1 2 1 1 1 1 1 1 1 1 1 1 1 0 1 1 1 0.792156862745098 0.81960784313725499 0.93333333333333302 #
loop $-1 -1 -1 $-1 $-1 $162 $91 F unknown #
plane-surface $191 -1 -1 $-1 60 0 -100 0 0 -1 -1 0 0 forward_v I I I I #
coedge $-1 -1 -1 $-1 $102 $192 $104 $167 reversed $92 $-1 #
rgb_color-st-attrib $-1 -1 $-1 $-1 $93 2 1 2 1 1 1 1 1 1 1 1 1 1 1 0 1 1 1 0.792156862745098 0.81960784313725499 0.93333333333333302 #
coedge $-1 -1 -1 $-1 $193 $94 $192 $194 reversed $49 $-1 #
edge $-1 -1 -1 $-1 $125 -1.7530242338244706e-031 $195 3.1415926535897913 $94 $196 forward @7 unknown F #
coedge $-1 -1 -1 $-1 $97 $96 $197 $198 forward $27 $-1 #
coedge $-1 -1 -1 $-1 $132 $193 $96 $154 forward $49 $-1 #
edge $-1 -1 -1 $-1 $199 0 $158 100 $96 $200 forward @7 unknown F #
coedge $-1 -1 -1 $-1 $101 $100 $97 $156 reversed $17 $-1 #
edge $-1 -1 -1 $-1 $201 0 $159 100 $155 $202 forward @7 unknown F #
coedge $-1 -1 -1 $-1 $114 $98 $100 $161 forward $79 $-1 #
vertex $-1 -1 -1 $-1 $99 $203 #
vertex $-1 -1 -1 $-1 $161 $204 #
straight-curve $-1 -1 -1 $-1 60 50.000000000000021 0 -1 -1.7763568394002506e-016 0 I I #
edge $-1 -1 -1 $-1 $159 0 $116 50 $100 $205 forward @7 unknown F #
coedge $-1 -1 -1 $-1 $197 $206 $101 $163 reversed $146 $-1 #
edge $-1 -1 -1 $-1 $201 0 $165 50 $101 $207 forward @7 unknown F #
coedge $-1 -1 -1 $-1 $192 $102 $206 $208 forward $92 $-1 #
vertex $-1 -1 -1 $-1 $163 $209 #
straight-curve $-1 -1 -1 $-1 -60 0 -100 0 0 1 I I #
edge $-1 -1 -1 $-1 $105 0 $195 120 $148 $210 forward @7 unknown F #
point $-1 -1 -1 $-1 -60 0 -62 #
straight-curve $-1 -1 -1 $-1 -12 8.8740242254663696e-015 0 0 0 -1 I I #
pcurve $-1 -1 -1 $-1 0 forward { exppc 9 nubs 1 open 2 
	-3.1415926535897922 1 -1.5707963267948979 1 
	1 1 
	0 1 
	0.00050000000000000001 
	-1 
	spline forward { ref 4 } I I I I 
	} 0 0 #
pcurve $-1 -1 -1 $-1 0 forward { exppc 10 nubs 1 open 2 
	-1.5707963267948917 1 2.2204460492503131e-016 1 
	0 0 
	1 0 
	0.00050000000000000001 
	-1 
	spline forward { ref 4 } I I I I 
	} 0 0 #
face $211 -1 -1 $-1 $-1 $110 $3 $-1 $212 forward single F F #
point $-1 -1 -1 $-1 -12 8.8740242254663696e-015 -35 #
straight-curve $-1 -1 -1 $-1 -60 0 0 1 1.8487550469721596e-016 0 I I #
point $-1 -1 -1 $-1 -60 0 0 #
pcurve $-1 -1 -1 $-1 0 forward { exppc 11 nubs 5 open 11 
	-1.9776962184364316e-015 5 0.1570796326794863 1 0.31415926535897454 1 0.47123889803846281 1 0.62831853071795107 2 
	0.7853981633974394 2 0.94247779607692761 1 1.0995574287564158 1 1.2566370614359041 2 1.4137166941153925 1 
	1.5707963267948806 5 
	3.7500000000000049 -0.057595865315811776 
	3.7500000000000049 -0.026179938779913758 
	3.7530842513753453 0.036651914291882262 
	3.7669633981706534 0.13089969389957598 
	3.8038219527001358 0.25656340004316869 
	3.8642435202165131 0.38222710618675804 
	3.9412217535932097 0.50789081233035427 
	4.0106108499171969 0.60213859193804287 
	4.0872009765229578 0.69638637154574012 
	4.1706762749109707 0.79063415115343005 
	4.2943770312913303 0.91629785729702795 
	4.3953439818926228 1.0105456369047061 
	4.5384029811570867 1.1362093430483273 
	4.6881014468156526 1.2618730491918853 
	4.8039735775211616 1.35612082879961 
	4.8821900629444892 1.4189526818713696 
	4.9607300918301336 1.481784534943188 
	5.0000000000000062 1.5132004614790859 
	1.6379236394245315e-005 
	1.3646968622011109e-006 
	cone 60 2.0424223667335441e-014 -50 -1 -0 -0 0 0.690768323514795 11.980101799368324 1 I I 0 -1 11.999999999999984 forward I I I I 
	} 0 0 #
ellipse-curve $-1 -1 -1 $-1 -4.4408920985006262e-016 -5.3290705182007514e-015 -50.000000000000021 0.62469504755442451 -1.4911342741030922e-015 0.78086880944303017 14.999999999999993 -1.7061350299040027e-014 -12.000000000000002 0.62469504755442429 I I #
rgb_color-st-attrib $-1 -1 $-1 $-1 $121 2 1 2 1 1 1 1 1 1 1 1 1 1 1 0 1 1 1 0.792156862745098 0.81960784313725499 0.93333333333333302 #
cone-surface $213 -1 -1 $-1 60 2.0424223667335441e-014 -50 -1 -0 -0 0 0.690768323514795 11.980101799368324 1 I I 0 -1 11.999999999999984 forward I I I I #
point $-1 -1 -1 $-1 60 2.2185060563665948e-014 -38 #
ellipse-curve $-1 -1 -1 $-1 -1.3944401189291966e-013 -1.3322676295501878e-013 -50.000000000000142 -0.62469504755442529 -4.6814680698586514e-016 0.78086880944302972 15.000000000000139 1.7914417813992214e-013 12.000000000000139 0.62469504755442473 I I #
rgb_color-st-attrib $-1 -1 $-1 $-1 $130 2 1 2 1 1 1 1 1 1 1 1 1 1 1 0 1 1 1 0.792156862745098 0.81960784313725499 0.93333333333333302 #
spline-surface $214 -1 -1 $-1 forward { ref 1 } I I I I #
straight-curve $-1 -1 -1 $-1 60 2.2185060563665948e-014 0 -4.2632564145606029e-016 0.99999999999999989 0 I I #
rgb_color-st-attrib $-1 -1 $-1 $-1 $135 2 1 2 1 1 1 1 1 1 1 1 1 1 1 0 1 1 1 0.792156862745098 0.81960784313725499 0.93333333333333302 #
plane-surface $215 -1 -1 $-1 60 0 0 0 -0 1 1 0 -0 forward_v I I I I #
point $-1 -1 -1 $-1 -12 8.8740242254663696e-015 0 #
ellipse-curve $-1 -1 -1 $-1 4.2632564145606011e-014 -3.0198066269804258e-014 -50.00000000000005 -0.78086880944303028 -8.1492221956796941e-016 -0.6246950475544244 -12.000000000000037 4.1587041353910201e-014 15.000000000000043 0.62469504755442407 I I #
point $-1 -1 -1 $-1 0 12 -50 #
rgb_color-st-attrib $-1 -1 $-1 $-1 $144 2 1 2 1 1 1 1 1 1 1 1 1 1 1 0 1 1 1 0.792156862745098 0.81960784313725499 0.93333333333333302 #
rgb_color-st-attrib $-1 -1 $-1 $-1 $147 2 1 2 1 1 1 1 1 1 1 1 1 1 1 0 1 1 1 0.792156862745098 0.81960784313725499 0.93333333333333302 #
coedge $-1 -1 -1 $-1 $148 $164 $150 $194 forward $92 $-1 #
coedge $-1 -1 -1 $-1 $153 $150 $216 $217 forward $49 $-1 #
edge $-1 -1 -1 $-1 $218 0 $195 38 $150 $219 forward @7 unknown F #
vertex $-1 -1 -1 $-1 $151 $220 #
ellipse-curve $-1 -1 -1 $-1 60 9.7505626878641819e-015 -50.000000000000007 -1 0 0 0 1.2434497875801761e-014 12 1 I I #
coedge $-1 -1 -1 $-1 $216 $162 $152 $198 reversed $146 $-1 #
edge $-1 -1 -1 $-1 $199 3.7865323450608572e-030 $201 120 $152 $221 forward @7 unknown F #
vertex $-1 -1 -1 $-1 $154 $222 #
straight-curve $-1 -1 -1 $-1 60 50 -100 0 0 1 I I #
vertex $-1 -1 -1 $-1 $156 $223 #
straight-curve $-1 -1 -1 $-1 -60 50 -100 0 0 1 I I #
point $-1 -1 -1 $-1 60 50 0 #
point $-1 -1 -1 $-1 -60 50 0 #
straight-curve $-1 -1 -1 $-1 -60 50 0 0 -1 0 I I #
coedge $-1 -1 -1 $-1 $162 $216 $164 $208 reversed $146 $-1 #
straight-curve $-1 -1 -1 $-1 -60 50 -100 0 -1 0 I I #
edge $-1 -1 -1 $-1 $165 0 $218 120 $164 $224 forward @7 unknown F #
point $-1 -1 -1 $-1 -60 0 -100 #
straight-curve $-1 -1 -1 $-1 -60 2.2185060563665948e-014 -62 1 0 0 I I #
rgb_color-st-attrib $-1 -1 $-1 $-1 $172 2 1 2 1 1 1 1 1 1 1 1 1 1 1 0 1 1 1 0.792156862745098 0.81960784313725499 0.93333333333333302 #
spline-surface $225 -1 -1 $-1 forward { ref 4 } I I I I #
rgb_color-st-attrib $-1 -1 $-1 $-1 $179 2 1 2 1 1 1 1 1 1 1 1 1 1 1 0 1 1 1 0.792156862745098 0.81960784313725499 0.93333333333333302 #
rgb_color-st-attrib $-1 -1 $-1 $-1 $183 2 1 2 1 1 1 1 1 1 1 1 1 1 1 0 1 1 1 0.792156862745098 0.81960784313725499 0.93333333333333302 #
rgb_color-st-attrib $-1 -1 $-1 $-1 $186 2 1 2 1 1 1 1 1 1 1 1 1 1 1 0 1 1 1 0.792156862745098 0.81960784313725499 0.93333333333333302 #
coedge $-1 -1 -1 $-1 $206 $197 $193 $217 reversed $146 $-1 #
edge $-1 -1 -1 $-1 $218 0 $199 49.999999999999972 $193 $226 forward @7 unknown F #
vertex $-1 -1 -1 $-1 $194 $227 #
straight-curve $-1 -1 -1 $-1 60 2.2185060563665948e-014 -100 0 0 1 I I #
point $-1 -1 -1 $-1 60 2.2185060563665948e-014 -62 #
straight-curve $-1 -1 -1 $-1 60 50.000000000000021 -100 -1 -1.7763568394002506e-016 0 I I #
point $-1 -1 -1 $-1 60 50 -100 #
point $-1 -1 -1 $-1 -60 50 -100 #
straight-curve $-1 -1 -1 $-1 -60 0 -100 1 1.8487550469721596e-016 0 I I #
rgb_color-st-attrib $-1 -1 $-1 $-1 $212 2 1 2 1 1 1 1 1 1 1 1 1 1 1 0 1 1 1 0.792156862745098 0.81960784313725499 0.93333333333333302 #
straight-curve $-1 -1 -1 $-1 60 2.2185060563665948e-014 -100 -4.2632564145606029e-016 0.99999999999999989 0 I I #
point $-1 -1 -1 $-1 60 2.2185060563665948e-014 -100 #
End-of-ACIS-data 