**ABCDEFGHIJKLMNOPQRSTUVWXYZabcdefghijklmnopqrstuvwxyz**************************
**PARASOLID !"#$%&'()*+,-./:;<=>?@[\]^_`{|}~0123456789**************************
**PART1;
MC=AMD64;
MC_MODEL=Intel64 Family 6 Model 140 Stepping 1, GenuineIntel;
MC_ID=unknown;
OS=Windows_NT;
OS_RELEASE=unknown;
FRU=Parasolid Version 34.1, build 254,  2-10-2023;
APPL=SOLIDWORKS 2023-2023281;
SITE=;
USER=unknown;
FORMAT=text;
GUISE=transmit;
KEY=axial plunge;
FILE=axial plunge.x_t;
DATE=Sat Jun 21 15:11:48 2025;
**PART2;
SCH=SCH_3401254_34101;
USFLD_SIZE=0;
**PART3;
**END_OF_HEADER*****************************************************************
T51 : TRANSMIT FILE created by modeller version 340125423 SCH_3401254_34101_1300
6231 0 12 36 CCCI7 lattice222 0 CCCI4 mesh1006 0 I8 polyline1008 0 CCCCCCCDI5 ow
ner1040 0 CCCI16 boundary_lattice222 0 CCCI13 boundary_mesh1006 0 I17 boundary_p
olyline1008 0 CCCA16 index_map_offset0 0 1 dA9 index_map82 0 A17 node_id_index_m
ap82 0 A20 schema_embedding_map82 0 A5 child12 0 A14 lowest_node_id0 0 1 dA16 me
sh_offset_data206 0 Z1 208 2 3 0 0 0 0 0 0 0 1e3 1e-8 0 4 0 1 0 1 1 5 0 6 7 0 0
 0 8 9 0 0 0 0 0 0 0 0 81 255 2 2 198 10 1 11 0 0 0 0 12 70 11 CI9 list_type0 0
 1 uI10 notransmit0 0 1 lCCCDCCDI12 finger_index0 0 1 dI12 finger_block1012 0 CZ
3 0 4 T1 0 0 11 20 1 13 13 13 255 5 31 0 1 0 14 0 0 15 0 51 255 6 30 0 16 17 0 0
 -0 0 .005 0 0 -1 .015 -1 0 0 31 255 7 25 0 18 19 0 0 +0 0 0 0 0 1 1 0 0 .015 19
 9 CCCCCCI5 frame230 0 CA5 owner12 0 Z8 9 0 1 15 0 20 0 V0 16 255 9 5 0 ?21 0 18
 19 0 0 1 17 255 21 0 22 21 21 0 23 9 0 0 +16 18 20 0 ?24 9 25 7 0 0 1 31 19 7 0
 9 26 7 0 +0 0 .005 0 0 1 1 0 0 .015 31 26 129 0 25 27 19 0 +0 0 0 0 0 1 1 0 0 .
012 16 25 104 0 ?28 18 29 26 0 0 1 31 27 131 0 29 0 26 0 +0 0 -.02 0 0 1 1 0 0 .
012 16 29 101 0 ?30 25 0 27 0 0 1 17 30 0 31 30 30 0 32 29 0 0 +15 255 31 111 0
 30 33 34 17 32 0 35 32 32 0 30 29 0 0 -15 35 120 0 32 36 0 14 255 36 118 37 ?0
 33 35 5 38 -0 0 0 33 20 81 1 37 200 39 36 40 0 0 41 42 14 33 108 41 ?36 16 31 5
 43 +0 0 36 16 20 50 255 38 128 0 36 0 43 0 +0 0 -.02 0 0 1 1 0 0 13 20 10 0 0 0
 0 0 0 8 14 14 14 48 44 ?45 0 22 5 46 +0 0 45 0 20 81 1 44 204 39 14 47 0 41 48
 49 14 45 42 48 ?16 14 50 5 17 -0 0 16 14 20 15 22 4 0 21 14 0 50 46 3 0 14 43 1
7 0 +0 0 .005 0 0 1 1 0 0 51 43 126 0 33 38 46 0 +0 0 -.02 0 0 1 .012 1 0 0 50 1
7 24 0 45 46 6 0 +0 0 0 0 0 1 1 0 0 81 1 48 206 39 45 51 0 44 52 53 14 16 27 52
 ?33 45 54 5 6 -0 0 33 45 20 15 50 19 0 55 45 56 17 55 0 50 55 55 0 24 18 0 0 -1
5 56 40 0 28 45 0 17 28 0 56 28 28 0 57 25 0 0 +17 57 0 34 57 57 0 28 25 0 0 -15
 34 112 0 57 33 0 17 24 0 58 24 24 0 55 18 0 0 +15 58 28 0 24 16 0 81 1 52 208 3
9 16 59 0 48 0 60 15 54 26 0 23 16 58 17 23 0 54 23 23 0 21 9 0 0 -80 7 CCCCCDI1
2 legal_owners0 16 1 lCZ1 39 61 62 9000 1 1 1 1 1 1 1 1 0 FFFFTFTFFFFFFFFF1 81 3
 59 207 63 16 64 52 51 0 65 0 0 82 255 1 60 751173736 80 3 63 66 67 9000 0 0 0 0
 3 5 0 0 0 FFFFTFFFFFFFFFFF1 1 1 81 1 64 178 68 16 0 59 69 70 71 81 3 51 205 63
 45 69 48 47 59 72 0 0 82 6 65 0 1468984176 31187617 0 0 0 81 1 69 177 68 45 0 5
1 73 64 74 81 3 47 203 63 14 73 44 75 51 76 0 0 82 6 72 0 1468984176 31187617 0
 0 0 81 1 73 176 68 14 0 47 0 69 77 81 3 75 201 63 33 70 41 40 47 78 0 0 82 6 76
 0 1789535189 31187617 0 0 0 81 1 70 179 68 33 0 75 64 79 80 81 1 41 202 39 33 7
5 0 37 44 81 81 3 40 199 63 36 79 37 0 75 82 0 0 82 6 78 0 1789535189 31187617 0
 0 0 81 1 79 180 68 36 0 40 70 0 83 82 6 82 0 1789535189 31187617 0 0 0 80 1 68
 0 84 8001 0 0 0 0 3 5 0 0 0 FFFFTFTFFFFFFFFF2 83 255 3 83 .792156862745098 .819
607843137255 .933333333333333 79 255 15 84 SDL/TYSA_COLOUR82 1 81 -1477902228 83
 3 80 .792156862745098 .819607843137255 .933333333333333 83 3 77 .79215686274509
8 .819607843137255 .933333333333333 83 3 74 .792156862745098 .819607843137255 .9
33333333333333 83 3 71 .792156862745098 .819607843137255 .933333333333333 79 18
 67 DOWNSTREAM_FACE_ID79 14 62 SWEntUnchanged82 1 53 752877672 82 1 49 753401964
 82 1 42 -1484259220 19 15 32 0 1 0 8 5 0 S0 74 4 CI16 index_map_offset0 0 1 dCC
Z20 13 11 0 0 59 52 85 86 87 88 89 90 11 79 2 0 0 0 0 0 0 0 0 0 81 2 85 99 91 1
 0 86 0 0 0 0 81 2 86 141 92 1 85 87 0 0 0 93 81 2 87 148 94 1 86 88 0 0 0 95 81
 2 88 149 96 1 87 89 0 0 97 0 81 1 89 153 98 1 88 90 0 0 99 81 2 90 160 100 1 89
 11 0 0 101 0 81 2 11 175 102 1 90 2 0 0 0 103 80 2 102 104 105 9000 0 0 0 0 3 5
 0 0 0 FFTFFFFFFFFFFFFF9 1 82 1 103 1 79 24 105 BODY_IN_LIGHTWEIGHT_PERM80 2 100
 106 107 8004 0 0 0 0 3 5 0 0 0 FFTFFFFFFFFFFFFF2 3 83 1 101 1 79 16 107 SDL/TYS
A_DENSITY80 1 98 108 109 9000 1 1 1 1 1 1 1 1 0 FFTFFFFFFFFFFFFF1 82 1 99 142502
 79 10 109 BODY_MATCH80 2 96 110 111 9000 0 0 0 0 3 5 0 0 0 FFTFTTTFFTFFFFFF10 1
0 98 255 13 97 66 111 115 115 45 69 120 116 114 117 100 101 50 79 23 111 SWIMPLI
CITBODYNAME_ID_U80 2 94 112 113 9000 0 0 0 0 3 5 0 0 0 FFTFFFFFFFFFFFFF9 1 82 1
 95 44 79 30 113 LAST_BODY_MODIFYING_FEATURE_ID80 2 92 114 115 9000 0 0 0 0 3 5
 0 0 0 FFTFFFFFFFFFFFFF9 1 82 1 93 105 79 19 115 ENT_TIME_STAMP_200180 2 91 116
 117 9000 0 0 0 0 3 5 0 0 0 FFTFFFFFFFFFFFFF9 1 79 16 117 BODY_RECIPE_200180 2 1
0 118 119 9000 0 0 0 0 3 5 0 0 0 FFTFFFFFFFFFFFFF9 1 82 1 12 102 79 12 119 ATOM_
ID_20011 0 
