**ABCDEFGHIJKLMNOPQRSTUVWXYZabcdefghijklmnopqrstuvwxyz**************************
**PARASOLID !"#$%&'()*+,-./:;<=>?@[\]^_`{|}~0123456789**************************
**PART1;
MC=AMD64;
MC_MODEL=Intel64 Family 6 Model 140 Stepping 1, GenuineIntel;
MC_ID=unknown;
OS=Windows_NT;
OS_RELEASE=unknown;
FRU=Parasolid Version 34.1, build 254,  2-10-2023;
APPL=SOLIDWORKS 2023-2023281;
SITE=;
USER=unknown;
FORMAT=text;
GUISE=transmit;
KEY=lower die;
FILE=lower die.x_t;
DATE=Fri Jun 20 11:12:58 2025;
**PART2;
SCH=SCH_3401254_34101;
USFLD_SIZE=0;
**PART3;
**END_OF_HEADER*****************************************************************
T51 : TRANSMIT FILE created by modeller version 340125423 SCH_3401254_34101_1300
6231 0 12 36 CCCI7 lattice222 0 CCCI4 mesh1006 0 I8 polyline1008 0 CCCCCCCDI5 ow
ner1040 0 CCCI16 boundary_lattice222 0 CCCI13 boundary_mesh1006 0 I17 boundary_p
olyline1008 0 CCCA16 index_map_offset0 0 1 dA9 index_map82 0 A17 node_id_index_m
ap82 0 A20 schema_embedding_map82 0 A5 child12 0 A14 lowest_node_id0 0 1 dA16 me
sh_offset_data206 0 Z1 673 2 3 0 0 0 0 0 0 0 1e3 1e-8 0 4 0 1 0 1 1 5 0 6 7 8 0
 0 9 10 11 0 0 0 0 0 0 0 81 255 2 2 649 12 1 13 0 0 0 0 14 70 11 CI9 list_type0
 0 1 uI10 notransmit0 0 1 lCCCDCCDI12 finger_index0 0 1 dI12 finger_block1012 0
 CZ3 0 4 T1 0 0 11 20 1 15 15 13 255 5 99 0 1 0 16 0 0 17 0 56 255 6 466 0 18 19
 0 0 +R20 21 7 .003 .003 1 1 0 0 22 23 32 255 7 467 0 1 24 0 25 -0 -136248653610
9088e-33 -.05 .707106781186548 294392336003208e-30 .707106781186548 -.7071067811
86548 -294392336003208e-30 .707106781186548 .02121320343559645 .015 29 255 8 405
 0 11 26 0 .015 3122502256758255e-32 -.038 19 9 CCCCCCI5 frame230 0 CA5 owner12
 0 Z9 33 0 1 17 0 27 0 V0 16 255 10 424 0 ?28 0 29 30 0 0 1 18 255 11 403 0 31 0
 32 8 ?1 17 255 31 0 33 34 35 11 36 37 0 38 +18 32 400 0 28 11 39 26 ?1 17 28 0
 40 41 42 32 43 10 0 44 +18 39 385 0 45 32 46 47 ?1 29 26 402 0 32 47 8 -.015 18
73501354054955e-32 -.038 29 47 387 0 39 48 26 .012 133530269891087e-31 -.035 29
 48 384 0 46 49 47 -.012 890201799273914e-32 -.035 18 46 382 0 43 39 50 48 ?1 29
 49 243 0 50 51 48 499600361081321e-32 -.012 -.05 18 50 241 0 36 46 52 49 ?1 29
 51 149 0 52 53 49 -.012 890201799273914e-32 0 18 52 147 0 54 50 55 51 ?1 29 53
 75 0 56 57 51 -.06 0 0 18 56 66 0 58 59 60 53 ?1 29 57 76 0 60 61 53 .06 222550
4498184785e-32 0 18 60 67 0 62 56 63 57 ?1 29 61 77 0 63 64 57 .06 -.05 0 18 63
 68 0 65 60 66 61 ?1 29 64 78 0 66 67 61 -.06 -.05 0 18 66 69 0 68 63 69 64 ?1 2
9 67 32 0 55 70 64 -.06 0 -.1 18 55 30 0 71 52 72 67 ?1 29 70 29 0 72 73 67 .06
 2225504498184785e-32 -.1 18 72 27 0 74 55 75 70 ?1 29 73 26 0 75 76 70 .06 -.05
 -.1 18 75 24 0 77 72 59 73 ?1 29 76 23 0 59 78 73 -.06 -.05 -.1 18 59 21 0 79 7
5 56 76 ?1 29 78 221 0 69 80 76 .012 133530269891087e-31 0 18 69 187 0 81 66 82
 78 ?1 29 80 362 0 82 83 78 .06 2225504498184785e-32 -.062 18 82 320 0 84 69 85
 80 ?1 29 83 363 0 85 86 80 .06 2225504498184785e-32 -.038 18 85 325 0 34 82 87
 83 ?1 29 86 364 0 87 88 83 -.06 -308148791101958e-47 -.062 18 87 324 0 89 85 90
 86 ?1 29 88 365 0 90 0 86 -.06 -308148791101958e-47 -.038 18 90 319 0 91 87 0 8
8 ?1 17 91 0 33 44 89 90 92 93 0 41 -15 255 33 339 0 35 94 0 17 44 0 33 35 91 32
 41 95 0 96 +17 89 0 33 91 84 87 97 98 0 92 +17 92 0 99 71 100 87 91 93 0 101 +1
6 93 312 0 ?92 102 103 104 0 0 1 17 41 0 40 58 28 90 44 95 0 100 -15 40 289 0 42
 16 0 17 58 0 40 105 41 56 100 106 0 107 +16 95 308 0 ?44 98 102 108 102 102 1 1
7 100 0 99 92 109 90 58 106 0 0 -15 99 294 0 92 110 0 17 109 0 99 100 68 56 111
 112 0 0 -16 106 276 0 ?58 113 114 115 113 113 1 16 113 79 0 ?101 116 106 115 10
6 106 1 16 114 80 0 ?117 106 118 119 118 118 1 30 255 115 95 0 113 120 119 0 +-.
06 0 -.1 0 0 1 30 120 71 0 121 122 115 0 +-.06 0 0 -1 -1854587081820655e-31 0 30
 119 96 0 114 115 123 0 +.06 2225504498184785e-32 -.1 0 0 1 30 123 97 0 124 119
 125 0 +.06 -.05 -.1 0 0 1 16 124 81 0 ?65 118 126 123 0 0 1 30 125 98 0 126 123
 127 0 +-.06 -.05 -.1 0 0 1 16 126 82 0 ?68 124 128 125 0 0 1 31 255 127 152 0 1
16 125 129 0 +0 0 0 0 0 -1 -1 0 0 .012 16 116 150 0 ?130 131 113 127 0 0 1 32 12
9 390 0 131 127 132 0 +0 -1362486536109088e-33 -.05 -.78086880944303 -3251019492
95732e-30 -.624695047554424 -.624695047554424 -260081559436586e-30 .780868809443
03 .01920937271229855 .012 16 131 388 0 ?133 134 116 129 0 0 1 32 132 396 0 134
 129 135 0 +0 -1362486536109088e-33 -.05 .78086880944303 325101949295732e-30 -.6
24695047554424 .624695047554424 260081559436586e-30 .78086880944303 .01920937271
229855 .012 16 134 394 0 ?136 137 131 132 0 0 1 32 135 408 0 137 132 138 0 -0 -1
362486536109088e-33 -.05 -.624695047554424 -2600815594365855e-31 -.7808688094430
3 -.78086880944303 -3251019492957325e-31 .624695047554424 .01920937271229855 .01
2 16 137 406 0 ?35 37 134 135 0 0 1 32 138 414 0 37 135 139 0 -0 -13624865361090
88e-33 -.05 .624695047554424 2600815594365855e-31 -.78086880944303 .780868809443
03 3251019492957325e-31 .624695047554424 .01920937271229855 .012 16 37 412 0 ?31
 29 137 138 0 0 1 31 139 420 0 29 138 30 0 +.015 488251797740742e-32 -.035 -1854
587081820655e-31 1 0 -1 -1854587081820655e-31 0 .003 16 29 418 0 ?45 10 37 139 0
 0 1 31 30 426 0 10 139 24 0 +-.015 -760749104962559e-32 -.035 -1854587081820655
e-31 1 0 -1 -1854587081820655e-31 0 .003 32 24 448 0 1 30 7 140 -0 -136248653610
9088e-33 -.05 -.707106781186548 -294392336003208e-30 .707106781186548 .707106781
186548 294392336003208e-30 .707106781186548 .02121320343559645 .015 141 255 140
 19 140 140 24 56 19 447 0 141 142 6 0 +R20 21 24 .003 .003 1 1 0 0 143 144 14 2
55 141 437 145 ?18 94 146 5 19 +0 0 18 94 27 50 255 142 94 0 110 147 19 0 +-.06
 -.05 -.1 -1 0 0 0 0 1 51 255 20 212 0 148 21 149 150 +0 0 -.05 0 0 1 .012 1 0 0
 51 21 348 0 94 0 20 151 +-.06 -277049911262842e-31 -.05 1 4163336342344335e-31
 0 .012 -4163336342344335e-31 1 0 41 3 CI8 term_use0 0 1 cCZ1 143 T?-62450045135
1651e-32 .015 -.05 41 1 144 T?624500451351651e-32 -.015 -.05 14 94 336 152 ?141
 148 33 5 21 -0 0 141 148 27 141 151 19 153 153 21 141 153 6 151 151 21 81 1 152
 653 154 94 155 0 145 156 157 14 148 200 156 ?94 158 159 5 20 -0 0 94 158 27 13
 27 34 0 0 0 0 0 0 9 16 14 16 285 160 ?161 0 40 5 162 +161 163 161 0 27 81 1 160
 657 154 16 164 0 156 165 166 14 161 280 165 ?110 16 167 5 162 +163 16 110 16 27
 50 162 91 0 163 168 169 0 +-.06 0 -.1 -1854587081820655e-31 1 0 -1 -18545870818
20655e-31 0 14 163 84 170 ?171 110 172 5 162 +16 161 171 110 27 81 1 170 661 154
 163 173 0 165 174 175 14 171 86 174 ?176 163 177 5 169 +0 0 176 163 27 14 110 9
0 178 ?163 161 99 5 142 +0 0 163 161 27 15 172 279 0 97 163 0 17 97 0 172 74 101
 82 89 98 0 117 -17 74 0 172 179 97 72 117 114 0 180 -17 101 0 172 97 179 87 71
 113 0 0 +16 98 304 0 ?89 181 95 182 0 0 1 17 117 0 177 183 180 82 74 114 0 0 +1
5 177 267 0 183 171 0 17 183 0 177 62 117 85 84 103 0 184 -17 180 0 177 117 77 7
2 185 186 0 187 +17 77 0 177 180 188 75 65 124 0 185 -17 185 0 189 190 187 75 18
0 186 0 191 -16 186 13 0 ?180 128 192 193 0 0 1 17 187 0 189 185 194 72 179 128
 0 0 -15 189 4 0 194 195 0 17 194 0 189 187 190 55 196 197 0 179 -17 179 0 172 1
01 74 55 187 128 0 0 +16 128 17 0 ?179 126 186 198 0 0 1 30 198 19 0 128 193 199
 0 +-.06 0 -.1 -1 -1854587081820655e-31 0 30 193 15 0 186 200 198 0 +.06 -.05 -.
1 -4163336342344335e-31 1 0 30 199 74 0 112 198 201 0 +-.06 -.05 0 0 -1 0 16 112
 62 0 ?111 202 203 199 0 0 1 30 201 73 0 202 199 122 0 +-.06 -.05 0 1 1734723475
976805e-31 0 16 202 58 0 ?204 205 112 201 0 0 1 30 122 72 0 205 201 120 0 +.06 -
.05 0 -4163336342344335e-31 1 0 16 205 54 0 ?206 207 202 122 0 0 1 17 206 0 208
 209 204 60 188 205 0 210 +16 207 148 0 ?107 121 205 120 121 121 1 17 107 0 208
 111 130 56 105 207 0 109 +16 121 50 0 ?209 197 207 120 207 207 1 17 209 0 208 1
30 206 69 210 121 0 0 +16 197 5 0 ?196 192 121 211 0 0 1 17 196 0 99 68 71 59 19
4 197 0 0 +16 192 9 0 ?191 186 197 200 0 0 1 30 211 7 0 197 212 200 0 +-.06 -.05
 -.1 0 -1 0 30 212 216 0 203 213 211 0 +-.012 890201799273914e-32 -.05 0 0 1 30
 200 11 0 192 211 193 0 +-.06 -.05 -.1 1 1734723475976805e-31 0 16 203 383 0 ?54
 112 181 212 0 0 1 30 213 217 0 181 182 212 0 -.012 133530269891087e-31 -.05 0 0
 1 16 181 178 0 ?214 203 98 213 0 0 1 30 182 353 0 98 108 213 0 --.06 -308148791
101958e-47 -.062 1 4163336342344335e-31 0 30 108 354 0 102 215 182 0 +-.06 -3081
48791101958e-47 -.038 1 4163336342344335e-31 0 16 102 404 0 ?34 95 93 108 95 95
 1 31 215 357 0 103 104 108 0 +.06 2225504498184785e-32 -.05 1 4163336342344335e
-31 0 -4163336342344335e-31 1 0 .012 16 103 316 0 ?84 93 0 215 0 0 1 31 104 358
 0 93 0 215 0 +-.06 -277049911262842e-31 -.05 1 4163336342344335e-31 0 -41633363
42344335e-31 1 0 .012 17 84 0 33 89 34 82 183 103 0 97 +17 34 0 33 84 31 85 38 1
02 0 183 +17 38 0 167 45 184 11 34 102 0 216 -15 167 284 0 38 161 0 17 45 0 167
 217 38 39 216 29 0 214 +17 184 0 167 38 210 85 62 118 0 0 -17 216 0 146 36 218
 11 45 29 0 0 -15 146 438 0 216 141 0 17 36 0 146 218 216 50 31 37 0 35 -17 218
 0 146 216 36 39 136 134 0 0 -17 136 0 159 133 214 50 218 134 0 219 +15 159 203
 0 214 148 0 17 133 0 159 54 136 46 219 131 0 42 +17 214 0 159 136 81 39 217 181
 0 218 +17 219 0 220 96 43 50 133 131 0 0 -15 220 457 0 219 18 0 17 96 0 220 43
 219 32 35 137 0 0 -17 43 0 220 219 96 46 28 10 0 133 -17 35 0 33 31 44 50 96 13
7 0 136 +14 18 456 221 ?0 141 220 5 6 +0 0 0 141 27 81 1 221 667 154 18 222 0 17
8 223 224 80 7 CCCCCDI12 legal_owners0 16 1 lCZ1 154 225 226 9000 1 1 1 1 1 1 1
 1 0 FFFFTFTFFFFFFFFF1 81 3 222 666 227 18 228 221 229 230 231 0 0 81 1 178 665
 154 110 229 0 174 221 232 81 1 223 669 154 158 230 0 221 233 234 82 255 1 224 1
71376762 14 158 48 223 ?148 195 208 5 168 -0 0 148 195 27 81 3 230 668 227 158 2
35 223 222 236 237 0 0 81 1 233 671 154 195 236 0 223 238 239 82 1 234 161729752
5 14 195 1 233 ?158 176 189 5 149 +0 0 158 176 27 81 3 236 670 227 195 240 233 2
30 241 242 0 0 81 1 238 673 154 176 241 0 233 0 243 82 1 239 1611661420 14 176 8
8 238 ?195 171 244 5 147 +0 0 195 171 27 81 3 241 672 227 176 245 238 236 0 246
 0 0 82 1 243 1618477164 80 3 227 247 248 9000 0 0 0 0 3 5 0 0 0 FFFFTFFFFFFFFFF
F1 1 1 81 1 245 605 249 176 0 241 250 240 251 82 6 246 0 -1107524800 31187381 0
 0 0 80 1 249 0 252 8001 0 0 0 0 3 5 0 0 0 FFFFTFTFFFFFFFFF2 81 1 250 604 249 17
1 0 253 254 245 255 81 1 240 606 249 195 0 236 245 235 256 83 255 3 251 .7921568
62745098 .819607843137255 .933333333333333 81 1 235 607 249 158 0 230 240 257 25
8 83 3 256 .792156862745098 .819607843137255 .933333333333333 81 1 257 608 249 1
48 0 259 235 260 261 83 3 258 .792156862745098 .819607843137255 .933333333333333
 81 3 259 654 227 148 257 156 155 164 262 0 0 81 1 260 609 249 94 0 155 257 263
 264 83 3 261 .792156862745098 .819607843137255 .933333333333333 81 3 155 652 22
7 94 260 152 265 259 266 0 0 81 1 263 610 249 141 0 265 260 228 267 83 3 264 .79
2156862745098 .819607843137255 .933333333333333 81 3 265 650 227 141 263 145 0 1
55 268 0 0 81 1 228 611 249 18 0 222 263 0 269 83 3 267 .792156862745098 .819607
843137255 .933333333333333 83 3 269 .792156862745098 .819607843137255 .933333333
333333 81 1 145 651 154 141 265 0 0 152 270 82 6 268 0 2038907951 31187382 0 0 0
 82 1 270 169672826 82 6 266 0 2038907951 31187382 0 0 0 81 1 156 655 154 148 25
9 0 152 160 271 81 3 164 656 227 16 272 160 259 273 274 0 0 82 6 262 0 203890795
1 31187382 0 0 0 81 1 272 600 249 16 0 164 0 275 276 81 3 273 658 227 161 275 16
5 164 173 277 0 0 82 6 274 0 2038907951 31187382 0 0 0 81 1 275 601 249 161 0 27
3 272 278 279 81 1 165 659 154 161 273 0 160 170 280 81 3 173 660 227 163 254 17
0 273 253 281 0 0 82 6 277 0 2038907951 31187382 0 0 0 81 1 254 603 249 163 0 17
3 278 250 282 81 3 253 662 227 171 250 174 173 229 283 0 0 82 6 281 0 1548937039
 31187382 0 0 0 81 1 174 663 154 171 253 0 170 178 284 81 3 229 664 227 110 278
 178 253 222 285 0 0 82 6 283 0 1548937039 31187382 0 0 0 81 1 278 602 249 110 0
 229 275 254 286 82 6 285 0 1548937039 31187382 0 0 0 83 3 286 .792156862745098
 .819607843137255 .933333333333333 82 1 284 1618346104 83 3 282 .792156862745098
 .819607843137255 .933333333333333 82 1 280 -1960968070 83 3 279 .79215686274509
8 .819607843137255 .933333333333333 83 3 276 .792156862745098 .819607843137255 .
933333333333333 82 1 271 1551695994 83 3 255 .792156862745098 .819607843137255 .
933333333333333 79 255 15 252 SDL/TYSA_COLOUR79 18 248 DOWNSTREAM_FACE_ID15 244
 87 0 287 176 0 50 147 93 0 176 169 142 0 +-.06 -.05 -.1 1734723475976805e-31 -1
 0 1 1734723475976805e-31 0 50 169 92 0 171 162 147 0 +.06 -.05 -.1 1 4163336342
344335e-31 0 -4163336342344335e-31 1 0 17 287 0 244 79 65 66 204 202 0 111 -17 7
9 0 244 191 287 59 68 126 0 190 -17 65 0 244 287 191 63 77 124 0 188 +17 204 0 2
08 206 111 63 287 202 0 0 +17 111 0 208 204 107 66 109 112 0 0 +15 208 49 0 209
 158 0 17 191 0 244 65 79 75 190 192 0 0 +17 188 0 177 77 62 63 206 205 0 204 -1
7 62 0 177 188 183 60 184 118 0 206 +16 118 264 0 ?62 114 124 119 114 114 1 17 1
90 0 189 194 185 59 191 192 0 196 -17 68 0 99 109 196 66 79 126 0 287 +82 6 242
 0 -1107524800 31187381 0 0 0 50 149 3 0 195 20 168 0 +0 0 -.1 0 0 -1 -1 0 0 50
 168 70 0 158 149 162 0 +0 0 0 0 0 -1 -1 0 0 82 6 237 0 1297888993 31187382 0 0
 0 82 1 232 1618608248 82 6 231 0 2038907951 31187382 0 0 0 79 14 226 SWEntUncha
nged17 81 0 159 214 54 69 130 116 0 217 -17 217 0 167 210 45 69 214 181 0 209 -1
7 210 0 167 184 217 60 209 121 0 0 -17 54 0 159 81 133 52 42 203 0 130 +17 130 0
 208 107 209 52 81 116 0 105 +17 105 0 40 42 58 52 107 207 0 0 -17 42 0 40 28 10
5 46 54 203 0 0 -17 71 0 99 196 92 55 101 113 0 194 -82 1 175 1618215032 82 1 16
6 -1960509318 82 1 157 -1971847046 141 150 19 288 288 20 141 288 6 150 150 20 19
 17 100 0 1 0 9 5 0 S0 141 25 6 25 25 7 41 1 22 T?624500451351651e-32 -.015 -.05
 41 1 23 T?-624500451351651e-32 .015 -.05 74 4 CI16 index_map_offset0 0 1 dCCZ20
 15 11 0 0 241 289 290 291 238 292 293 294 13 228 2 0 0 0 0 0 0 0 0 0 81 2 289 1
30 295 1 0 290 0 0 0 296 81 2 290 134 297 1 289 291 0 0 0 298 81 2 291 135 299 1
 290 292 0 0 300 0 81 1 292 484 301 1 291 293 0 0 302 81 2 293 498 303 1 292 294
 0 0 304 0 81 2 294 552 305 1 293 13 0 0 0 306 81 2 13 555 307 1 294 2 0 0 0 0 8
0 2 307 308 309 9000 0 0 0 0 3 5 0 0 0 FFTFFFFFFFFFFFFF9 1 79 16 309 BODY_RECIPE
_200180 2 305 310 311 9000 0 0 0 0 3 5 0 0 0 FFTFFFFFFFFFFFFF9 1 82 1 306 1 79 2
4 311 BODY_IN_LIGHTWEIGHT_PERM80 2 303 312 313 8004 0 0 0 0 3 5 0 0 0 FFTFFFFFFF
FFFFFF2 3 83 1 304 1 79 16 313 SDL/TYSA_DENSITY80 1 301 314 315 9000 1 1 1 1 1 1
 1 1 0 FFTFFFFFFFFFFFFF1 82 1 302 90126 79 10 315 BODY_MATCH80 2 299 316 317 900
0 0 0 0 0 3 5 0 0 0 FFTFTTTFFTFFFFFF10 10 98 255 7 300 70 105 108 108 101 116 49
 79 23 317 SWIMPLICITBODYNAME_ID_U80 2 297 318 319 9000 0 0 0 0 3 5 0 0 0 FFTFFF
FFFFFFFFFF9 1 82 1 298 76 79 30 319 LAST_BODY_MODIFYING_FEATURE_ID80 2 295 320 3
21 9000 0 0 0 0 3 5 0 0 0 FFTFFFFFFFFFFFFF9 1 82 1 296 114 79 19 321 ENT_TIME_ST
AMP_200180 2 12 322 323 9000 0 0 0 0 3 5 0 0 0 FFTFFFFFFFFFFFFF9 1 82 1 14 103 7
9 12 323 ATOM_ID_20011 0 
