**ABCDEFGHIJKLMNOPQRSTUVWXYZabcdefghijklmnopqrstuvwxyz**************************
**PARASOLID !"#$%&'()*+,-./:;<=>?@[\]^_`{|}~0123456789**************************
**PART1;
MC=AMD64;
MC_MODEL=Intel64 Family 6 Model 140 Stepping 1, GenuineIntel;
MC_ID=unknown;
OS=Windows_NT;
OS_RELEASE=unknown;
FRU=Parasolid Version 34.1, build 254,  2-10-2023;
APPL=SOLIDWORKS 2023-2023281;
SITE=;
USER=unknown;
FORMAT=text;
GUISE=transmit;
KEY=upper die;
FILE=upper die.x_t;
DATE=Fri Jun 20 14:53:04 2025;
**PART2;
SCH=SCH_3401254_34101;
USFLD_SIZE=0;
**PART3;
**END_OF_HEADER*****************************************************************
T51 : TRANSMIT FILE created by modeller version 340125423 SCH_3401254_34101_1300
6231 0 12 36 CCCI7 lattice222 0 CCCI4 mesh1006 0 I8 polyline1008 0 CCCCCCCDI5 ow
ner1040 0 CCCI16 boundary_lattice222 0 CCCI13 boundary_mesh1006 0 I17 boundary_p
olyline1008 0 CCCA16 index_map_offset0 0 1 dA9 index_map82 0 A17 node_id_index_m
ap82 0 A20 schema_embedding_map82 0 A5 child12 0 A14 lowest_node_id0 0 1 dA16 me
sh_offset_data206 0 Z1 682 2 3 0 0 0 0 0 0 0 1e3 1e-8 0 4 0 1 0 1 1 5 0 6 7 8 0
 0 9 10 11 0 0 0 0 0 0 0 81 255 2 2 658 12 1 13 0 0 0 0 14 70 11 CI9 list_type0
 0 1 uI10 notransmit0 0 1 lCCCDCCDI12 finger_index0 0 1 dI12 finger_block1012 0
 CZ3 0 4 T1 0 0 11 20 1 15 15 13 255 5 99 0 1 0 16 0 0 17 0 56 255 6 463 0 18 19
 0 0 +R20 21 7 .003 .003 1 1 0 0 22 23 32 255 7 464 0 1 24 0 25 -0 4437012112733
185e-33 -.05 .707106781186548 0 .707106781186548 -.707106781186548 0 .7071067811
86548 .0212132034355964 .015 29 255 8 408 0 11 26 0 -.015 2218506056366595e-32 -
.038 19 9 CCCCCCI5 frame230 0 CA5 owner12 0 Z9 33 0 1 17 0 27 0 V0 16 255 10 421
 0 ?28 0 29 30 0 0 1 18 255 11 406 0 31 0 32 8 ?1 17 255 31 0 33 34 35 11 36 37
 0 38 +18 32 397 0 39 11 40 26 ?1 17 39 0 41 42 43 32 44 45 0 46 +18 40 382 0 28
 32 47 48 ?1 29 26 399 0 32 48 8 .015 2218506056366595e-32 -.038 29 48 384 0 40
 49 26 -.012 887402422546637e-32 -.035 29 49 381 0 47 50 48 .012 133110363381995
6e-32 -.035 18 47 379 0 44 40 51 49 ?1 29 50 240 0 51 52 49 0 .012 -.05 18 51 23
8 0 36 47 53 50 ?1 29 52 149 0 53 54 50 .012 1331103633819956e-32 0 18 53 147 0
 55 51 56 52 ?1 29 54 75 0 57 58 52 -.06 .05 0 18 57 66 0 59 60 61 54 ?1 29 58 7
6 0 61 62 54 .06 .05 0 18 61 67 0 63 57 64 58 ?1 29 62 77 0 64 65 58 .06 2218506
056366595e-32 0 18 64 68 0 66 61 67 62 ?1 29 65 78 0 67 68 62 -.06 0 0 18 67 69
 0 69 64 70 65 ?1 29 68 32 0 56 71 65 -.06 .05 -.1 18 56 30 0 72 53 73 68 ?1 29
 71 29 0 73 74 68 .06 .05 -.1 18 73 27 0 75 56 76 71 ?1 29 74 26 0 76 77 71 .06
 2218506056366595e-32 -.1 18 76 24 0 78 73 60 74 ?1 29 77 23 0 60 79 74 -.06 0 -
.1 18 60 21 0 80 76 57 77 ?1 29 79 220 0 70 81 77 -.012 887402422546637e-32 0 18
 70 187 0 82 67 83 79 ?1 29 81 359 0 83 84 79 -.06 0 -.062 18 83 317 0 85 70 86
 81 ?1 29 84 360 0 86 87 81 -.06 0 -.038 18 86 322 0 34 83 88 84 ?1 29 87 361 0
 88 89 84 .06 2218506056366595e-32 -.062 18 88 321 0 90 86 91 87 ?1 29 89 362 0
 91 0 87 .06 2218506056366595e-32 -.038 18 91 316 0 92 88 0 89 ?1 17 92 0 33 46
 90 91 93 94 0 42 -15 255 33 336 0 46 95 0 17 46 0 33 35 92 32 42 96 0 97 +17 90
 0 33 92 85 88 98 99 0 93 +17 93 0 100 78 101 88 92 94 0 102 +16 94 309 0 ?93 10
3 104 105 0 0 1 17 42 0 41 66 39 91 46 96 0 101 -15 41 280 0 43 16 0 17 66 0 41
 106 42 64 101 107 0 108 +16 96 305 0 ?46 99 103 109 103 103 1 17 101 0 100 93 1
10 91 66 107 0 0 -15 100 285 0 93 111 0 17 110 0 100 101 63 64 112 113 0 0 -16 1
07 267 0 ?66 114 115 116 114 114 1 16 114 81 0 ?102 117 107 116 107 107 1 16 115
 82 0 ?118 107 119 120 119 119 1 30 255 116 97 0 114 121 120 0 +.06 221850605636
6595e-32 -.1 0 0 1 30 121 96 0 117 122 116 0 +.06 .05 -.1 0 0 1 30 120 98 0 115
 116 123 0 +-.06 0 -.1 0 0 1 32 123 387 0 124 120 125 0 +0 4437012112733185e-33
 -.05 -.78086880944303 0 -.624695047554424 -.624695047554424 0 .78086880944303 .
01920937271229855 .012 16 124 385 0 ?126 127 128 123 0 0 1 32 125 393 0 127 123
 129 0 +0 4437012112733185e-33 -.05 .78086880944303 0 -.624695047554424 .6246950
47554424 0 .78086880944303 .01920937271229855 .012 16 127 391 0 ?130 45 124 125
 0 0 1 31 255 129 402 0 45 125 131 0 +.015 4437012112733185e-33 -.035 1848755046
97216e-30 -1 0 1 184875504697216e-30 0 .003 16 45 400 0 ?39 37 127 129 0 0 1 32
 131 411 0 37 129 132 0 -0 4437012112733185e-33 -.05 -.624695047554424 0 -.78086
880944303 -.78086880944303 0 .624695047554424 .01920937271229855 .012 16 37 409
 0 ?31 29 45 131 0 0 1 32 132 417 0 29 131 30 0 -0 4437012112733185e-33 -.05 .62
4695047554424 0 -.78086880944303 .78086880944303 0 .624695047554424 .01920937271
229855 .012 16 29 415 0 ?35 10 37 132 0 0 1 31 30 423 0 10 132 24 0 +-.015 44370
12112733185e-33 -.035 184875504697216e-30 -1 0 1 184875504697216e-30 0 .003 32 2
4 445 0 1 30 7 133 -0 4437012112733185e-33 -.05 -.707106781186548 0 .70710678118
6548 .707106781186548 0 .707106781186548 .0212132034355964 .015 141 255 133 19 1
33 133 24 56 19 444 0 134 135 6 0 +R20 21 24 .003 .003 1 1 0 0 136 137 14 255 13
4 434 138 ?18 95 139 5 19 +0 0 18 95 27 50 255 135 94 0 140 141 19 0 +-.06 0 -.1
 -1 0 0 0 0 1 51 255 20 212 0 142 21 143 144 +0 0 -.05 0 0 1 .012 1 0 0 51 21 34
5 0 95 0 20 145 +.06 887402422546637e-32 -.05 -1 0 0 .012 0 0 1 41 3 CI8 term_us
e0 0 1 cCZ1 136 T?0 .015 -.05 41 1 137 T?0 -.015 -.05 14 95 333 146 ?134 142 33
 5 21 -0 0 134 142 27 141 145 19 147 147 21 141 147 6 145 145 21 81 1 146 662 14
8 95 149 0 138 150 151 14 142 200 150 ?95 152 153 5 20 -0 0 95 152 27 13 27 34 0
 0 0 0 0 0 9 16 14 16 276 154 ?155 0 41 5 141 +155 156 155 0 27 81 1 154 666 148
 16 157 0 150 158 159 14 155 271 158 ?140 16 160 5 141 +156 16 140 16 27 50 141
 93 0 156 161 135 0 +-.06 0 -.1 184875504697216e-30 -1 0 1 184875504697216e-30 0
 14 156 88 162 ?163 111 164 5 141 +16 155 163 111 27 81 1 162 670 148 156 165 0
 158 166 167 14 163 1 166 ?152 156 168 5 143 +0 0 152 156 27 14 111 86 169 ?156
 170 100 5 161 +0 0 156 170 27 15 164 270 0 98 156 0 17 98 0 164 80 102 83 90 99
 0 118 -17 80 0 164 171 98 60 118 115 0 172 -17 102 0 164 98 171 88 78 114 0 0 +
16 99 301 0 ?90 173 96 174 0 0 1 17 118 0 175 176 177 83 80 115 0 0 +15 175 291
 0 176 140 0 17 176 0 175 69 118 86 85 104 0 178 -17 177 0 175 118 72 60 179 180
 0 0 +17 72 0 175 177 181 56 59 128 0 179 -17 179 0 168 182 172 56 177 180 0 183
 -16 180 5 0 ?177 184 185 186 0 0 1 16 184 9 0 ?171 187 180 188 0 0 1 16 185 50
 0 ?189 180 113 190 0 0 1 30 186 7 0 180 191 188 0 +-.06 0 -.1 0 -1 0 30 191 216
 0 192 193 186 0 +.012 1331103633819956e-32 -.05 0 0 1 30 188 11 0 184 186 194 0
 +-.06 0 -.1 1 184875504697216e-30 0 30 194 15 0 187 188 195 0 +.06 221850605636
6595e-32 -.1 -4163336342344335e-31 1 0 16 187 13 0 ?196 197 184 194 0 0 1 30 195
 19 0 197 194 198 0 +-.06 .05 -.1 -1 -1734723475976805e-31 0 16 197 17 0 ?183 11
9 187 195 0 0 1 30 198 74 0 199 195 200 0 +-.06 0 0 0 -1 0 16 199 62 0 ?201 202
 192 198 0 0 1 30 200 73 0 203 198 204 0 +-.06 0 0 1 184875504697216e-30 0 16 20
3 58 0 ?205 113 202 200 202 202 1 30 204 72 0 113 200 190 0 +.06 221850605636659
5e-32 0 -4163336342344335e-31 1 0 16 113 54 0 ?112 185 203 204 0 0 1 30 190 71 0
 185 204 122 0 +-.06 .05 0 -1 -1734723475976805e-31 0 30 122 95 0 128 190 121 0
 +-.06 .05 -.1 0 0 1 16 128 79 0 ?59 124 117 122 0 0 1 17 59 0 206 207 183 57 72
 128 0 181 +16 117 80 0 ?63 128 114 121 0 0 1 17 63 0 100 110 196 61 75 117 0 11
2 +17 196 0 100 63 78 73 208 187 0 182 +17 75 0 206 183 207 73 63 117 0 196 -17
 112 0 209 189 108 61 110 113 0 207 +15 209 49 0 205 152 0 17 189 0 209 201 112
 57 207 185 0 0 +17 108 0 209 112 210 64 106 202 0 110 +17 207 0 206 75 59 61 18
9 185 0 0 -15 206 83 0 207 170 0 14 170 84 211 ?111 140 206 5 212 +0 0 111 140 2
7 81 1 211 676 148 170 213 0 169 214 215 14 140 90 214 ?170 155 175 5 135 +0 0 1
70 155 27 50 212 91 0 170 216 161 0 +-.06 .05 -.1 -1734723475976805e-31 1 0 -1 -
173472347597681e-30 0 50 216 70 0 152 143 212 0 +0 0 0 0 0 -1 -1 0 0 50 161 92 0
 111 212 141 0 +.06 2218506056366595e-32 -.1 1 4163336342344335e-31 0 -416333634
2344335e-31 1 0 14 152 48 217 ?142 163 209 5 216 -0 0 142 163 27 50 143 3 0 163
 20 216 0 +0 0 -.1 0 0 -1 -1 0 0 81 1 217 680 148 152 218 0 214 219 220 80 7 CCC
CCDI12 legal_owners0 16 1 lCZ1 148 221 222 9000 1 1 1 1 1 1 1 1 0 FFFFTFTFFFFFFF
FF1 81 3 218 679 223 152 224 217 225 226 227 0 0 81 1 214 678 148 140 225 0 211
 217 228 81 1 219 682 148 18 226 0 217 0 229 82 255 1 220 -1927741332 14 18 453
 219 ?0 134 230 5 6 +0 0 0 134 27 81 3 226 681 223 18 231 219 218 0 232 0 0 82 1
 229 -1180172174 80 3 223 233 234 9000 0 0 0 0 3 5 0 0 0 FFFFTFFFFFFFFFFF1 1 1 8
1 1 231 620 235 18 0 226 236 0 237 82 6 232 0 2133697570 31187413 0 0 0 80 1 235
 0 238 8001 0 0 0 0 3 5 0 0 0 FFFFTFTFFFFFFFFF2 81 1 236 619 235 134 0 239 240 2
31 241 83 255 3 237 .792156862745098 .819607843137255 .933333333333333 81 3 239
 659 223 134 236 138 0 149 242 0 0 81 1 240 618 235 95 0 149 243 236 244 83 3 24
1 .792156862745098 .819607843137255 .933333333333333 81 3 149 661 223 95 240 146
 239 245 246 0 0 81 1 243 617 235 142 0 245 224 240 247 83 3 244 .79215686274509
8 .819607843137255 .933333333333333 81 3 245 663 223 142 243 150 149 157 248 0 0
 81 1 224 616 235 152 0 218 249 243 250 83 3 247 .792156862745098 .8196078431372
55 .933333333333333 81 1 249 615 235 163 0 251 252 224 253 83 3 250 .79215686274
5098 .819607843137255 .933333333333333 81 3 251 671 223 163 249 166 165 254 255
 0 0 81 1 252 614 235 156 0 165 256 249 257 83 3 253 .792156862745098 .819607843
137255 .933333333333333 81 3 165 669 223 156 252 162 258 251 259 0 0 81 1 256 61
3 235 111 0 254 260 252 261 83 3 257 .792156862745098 .819607843137255 .93333333
3333333 81 3 254 673 223 111 256 169 251 213 262 0 0 81 1 260 612 235 170 0 213
 263 256 264 83 3 261 .792156862745098 .819607843137255 .933333333333333 81 3 21
3 675 223 170 260 211 254 225 265 0 0 81 1 263 611 235 140 0 225 266 260 267 83
 3 264 .792156862745098 .819607843137255 .933333333333333 81 3 225 677 223 140 2
63 214 213 218 268 0 0 81 1 266 610 235 155 0 258 269 263 270 83 3 267 .79215686
2745098 .819607843137255 .933333333333333 81 3 258 667 223 155 266 158 157 165 2
71 0 0 81 1 269 609 235 16 0 157 0 266 272 83 3 270 .792156862745098 .8196078431
37255 .933333333333333 81 3 157 665 223 16 269 154 245 258 273 0 0 83 3 272 .792
156862745098 .819607843137255 .933333333333333 82 6 273 0 2133697570 31187413 0
 0 0 81 1 158 668 148 155 258 0 154 162 274 82 6 271 0 2133697570 31187413 0 0 0
 82 1 274 1204289650 82 6 268 0 1889784919 31187413 0 0 0 82 6 265 0 983445108 3
1187413 0 0 0 81 1 169 674 148 111 254 0 166 211 275 82 6 262 0 1889784919 31187
413 0 0 0 81 1 166 672 148 163 251 0 162 169 276 82 1 275 -1926692752 82 1 276 -
1933377432 82 6 259 0 1889784919 31187413 0 0 0 82 6 255 0 983445108 31187413 0
 0 0 81 1 150 664 148 142 245 0 146 154 277 82 6 248 0 2133697570 31187413 0 0 0
 82 1 277 -1966800782 82 6 246 0 2133697570 31187413 0 0 0 81 1 138 660 148 134
 239 0 0 146 278 82 6 242 0 2133697570 31187413 0 0 0 82 1 278 -1181876110 79 25
5 15 238 SDL/TYSA_COLOUR79 18 234 DOWNSTREAM_FACE_ID15 230 454 0 279 18 0 17 279
 0 230 36 280 11 28 10 0 0 -17 36 0 230 280 279 51 31 37 0 35 -17 280 0 230 279
 36 40 126 124 0 0 -17 28 0 160 281 38 40 279 10 0 282 +15 160 275 0 38 155 0 17
 281 0 160 283 28 70 282 284 0 205 -17 38 0 160 28 178 11 34 103 0 279 -17 282 0
 153 126 82 40 281 284 0 280 +15 153 203 0 126 142 0 17 126 0 153 130 282 51 280
 124 0 285 +17 82 0 153 282 55 70 210 173 0 281 +16 284 178 0 ?282 192 173 193 0
 0 1 16 192 380 0 ?55 199 284 191 0 0 1 16 173 183 0 ?82 284 99 286 0 0 1 30 193
 217 0 284 286 191 0 --.012 887402422546637e-32 -.05 0 0 1 31 286 218 0 173 174
 193 0 +0 0 0 0 0 1 1 0 0 .012 30 174 350 0 99 109 286 0 -.06 2218506056366595e-
32 -.062 -1 0 0 30 109 351 0 103 287 174 0 +.06 2218506056366595e-32 -.038 -1 0
 0 16 103 407 0 ?34 96 94 109 96 96 1 31 287 354 0 104 105 109 0 +-.06 887402422
546637e-32 -.05 -1 0 0 0 0 1 .012 16 104 313 0 ?85 94 0 287 0 0 1 31 105 355 0 9
4 0 287 0 +.06 887402422546637e-32 -.05 -1 0 0 0 0 1 .012 17 85 0 33 90 34 83 17
6 104 0 98 +17 34 0 33 85 31 86 38 103 0 176 +17 55 0 153 82 130 53 43 192 0 210
 +17 130 0 153 55 126 47 285 127 0 43 +17 43 0 41 39 106 47 55 192 0 0 -17 210 0
 209 108 205 53 82 173 0 106 -17 205 0 209 210 201 70 283 203 0 0 +17 106 0 41 4
3 66 53 108 202 0 0 -16 202 148 0 ?108 203 199 200 203 203 1 17 201 0 209 205 18
9 67 181 199 0 0 +17 283 0 160 178 281 67 205 203 0 201 -17 178 0 160 38 283 86
 69 119 0 0 -17 69 0 175 181 176 67 178 119 0 283 +16 119 261 0 ?69 115 197 120
 115 115 1 17 181 0 175 72 69 57 201 199 0 189 -17 285 0 139 97 44 51 130 127 0
 0 -15 139 435 0 285 134 0 17 97 0 139 44 285 32 35 29 0 0 -17 44 0 139 285 97 4
7 39 45 0 130 -17 35 0 33 31 46 51 97 29 0 126 +82 1 228 -1926430608 82 6 227 0
 1485710008 31187413 0 0 0 79 14 222 SWEntUnchanged82 1 215 -1926823832 17 183 0
 206 59 75 56 182 197 0 0 +17 182 0 168 208 179 73 183 197 0 0 -15 168 4 0 179 1
63 0 17 208 0 168 172 182 76 196 187 0 171 -17 172 0 168 179 208 60 171 184 0 17
7 -17 171 0 164 102 80 76 172 184 0 0 +17 78 0 100 196 93 76 102 114 0 208 -82 1
 167 -1926561680 82 1 159 1204748402 82 1 151 1193934962 141 144 19 288 288 20 1
41 288 6 144 144 20 19 17 100 0 1 0 9 5 0 S0 141 25 6 25 25 7 41 1 22 T?0 -.015
 -.05 41 1 23 T?0 .015 -.05 74 4 CI16 index_map_offset0 0 1 dCCZ20 15 11 0 0 226
 289 290 291 219 292 293 294 13 231 2 0 0 0 0 0 0 0 0 0 81 2 289 130 295 1 0 290
 0 0 0 296 81 2 290 134 297 1 289 291 0 0 0 298 81 2 291 135 299 1 290 292 0 0 3
00 0 81 1 292 481 301 1 291 293 0 0 302 81 2 293 495 303 1 292 294 0 0 304 0 81
 2 294 549 305 1 293 13 0 0 0 306 81 2 13 564 307 1 294 2 0 0 0 0 80 2 307 308 3
09 9000 0 0 0 0 3 5 0 0 0 FFTFFFFFFFFFFFFF9 1 79 16 309 BODY_RECIPE_200180 2 305
 310 311 9000 0 0 0 0 3 5 0 0 0 FFTFFFFFFFFFFFFF9 1 82 1 306 1 79 24 311 BODY_IN
_LIGHTWEIGHT_PERM80 2 303 312 313 8004 0 0 0 0 3 5 0 0 0 FFTFFFFFFFFFFFFF2 3 83
 1 304 1 79 16 313 SDL/TYSA_DENSITY80 1 301 314 315 9000 1 1 1 1 1 1 1 1 0 FFTFF
FFFFFFFFFFF1 82 1 302 36033 79 10 315 BODY_MATCH80 2 299 316 317 9000 0 0 0 0 3
 5 0 0 0 FFTFTTTFFTFFFFFF10 10 98 255 7 300 70 105 108 108 101 116 49 79 23 317
 SWIMPLICITBODYNAME_ID_U80 2 297 318 319 9000 0 0 0 0 3 5 0 0 0 FFTFFFFFFFFFFFFF
9 1 82 1 298 57 79 30 319 LAST_BODY_MODIFYING_FEATURE_ID80 2 295 320 321 9000 0
 0 0 0 3 5 0 0 0 FFTFFFFFFFFFFFFF9 1 82 1 296 109 79 19 321 ENT_TIME_STAMP_20018
0 2 12 322 323 9000 0 0 0 0 3 5 0 0 0 FFTFFFFFFFFFFFFF9 1 82 1 14 103 79 12 323
 ATOM_ID_20011 0 
